<?xml version="1.0" encoding="utf-8"?>
<!-- Generator: Adobe Illustrator 26.5.0, SVG Export Plug-In . SVG Version: 6.00 Build 0)  -->
<svg version="1.1" id="a" xmlns="http://www.w3.org/2000/svg" xmlns:xlink="http://www.w3.org/1999/xlink" x="0px" y="0px"
	 viewBox="0 0 567.3 737.3" style="enable-background:new 0 0 567.3 737.3;" xml:space="preserve">
<style type="text/css">
	.st0{font-family:'Courier New';}
	.st1{font-size:24.7871px;}
	.st2{letter-spacing:14;}
	.st3{font-size:11.9552px;}
	.st4{fill:#0000FF;}
	.st5{font-size:9.9626px;}
	.st6{letter-spacing:5;}
	.st7{letter-spacing:17;}
	.st8{fill:none;stroke:#000000;stroke-width:0.3985;stroke-miterlimit:10;}
	.st9{font-family:'Courier New'; font-weight: bold;}
	.st10{font-size:14.3462px;}
	.st11{letter-spacing:7;}
	.st12{letter-spacing:11;}
	.st13{fill:none;stroke:#000000;stroke-width:0.398;stroke-miterlimit:10;}
	.st14{font-family:'Courier New'; font-style: italic;}
	.st15{font-size:8.9664px;}
	.st16{fill:none;stroke:#000000;stroke-width:0.379;stroke-miterlimit:10;}
	.st17{letter-spacing:16;}
	.st18{font-family:'Courier New'; font-weight: bold; ont-style: italic;}
	.st19{font-family:'CambriaMath';}
	.st20{font-size:6.9738px;}
	.st21{letter-spacing:10;}
	.st22{letter-spacing:8;}
	.st23{font-family:'ArialMT';}
	.st24{letter-spacing:26;}
	.st25{font-family:'CMUSerif-Roman';}
	.st26{font-size:5.9776px;}
</style>
<text transform="matrix(1 0 0 1 0 19.4736)" class="st0 st1">Alexandr</text>
<text transform="matrix(1 0 0 1 118.9976 19.4736)" class="st0 st1 st2">a</text>
<text transform="matrix(1 0 0 1 148.7441 19.4736)" class="st0 st1">J</text>
<text transform="matrix(1 0 0 1 163.6187 19.4736)" class="st0 st1 st2">.</text>
<text transform="matrix(1 0 0 1 193.3657 19.4736)" class="st0 st1">Marx</text>
<text transform="matrix(1 0 0 1 362.7231 19.4736)" class="st0 st3">Email:</text>
<text transform="matrix(1 0 0 1 420.1079 19.4736)" class="st4 st0 st3">ajjmarx@umich.edu</text>
<text transform="matrix(1 0 0 1 17.3506 31.4287)" class="st0 st5">An</text>
<text transform="matrix(1 0 0 1 29.3076 31.4287)" class="st0 st5 st6">n</text>
<text transform="matrix(1 0 0 1 41.2637 31.4287)" class="st0 st5">Arbor</text>
<text transform="matrix(1 0 0 1 71.1563 31.4287)" class="st0 st5 st6">,</text>
<text transform="matrix(1 0 0 1 83.1123 31.4287)" class="st0 st5">MI</text>
<text transform="matrix(1 0 0 1 95.0694 31.4287)" class="st0 st5 st6">,</text>
<text transform="matrix(1 0 0 1 107.0259 31.4287)" class="st0 st5">US</text>
<text transform="matrix(1 0 0 1 118.9829 31.4287)" class="st0 st5 st7">A</text>
<text transform="matrix(1 0 0 1 142.8941 31.4287)" class="st0 st5">(Willin</text>
<text transform="matrix(1 0 0 1 184.7437 31.4287)" class="st0 st5 st6">g</text>
<text transform="matrix(1 0 0 1 196.6997 31.4287)" class="st0 st5">t</text>
<text transform="matrix(1 0 0 1 202.6782 31.4287)" class="st0 st5 st6">o</text>
<text transform="matrix(1 0 0 1 214.6343 31.4287)" class="st0 st5">relocate)</text>
<text transform="matrix(1 0 0 1 455.9634 31.4287)" class="st0 st3">734-730-4398</text>
<text transform="matrix(1 0 0 1 17.3506 43.3838)" class="st0 st5">LinkedIn:</text>
<text transform="matrix(1 0 0 1 101.0371 43.3838)" class="st4 st0 st5">linkedin.com/in/alexandra-marx-85622a242</text>
<text transform="matrix(1 0 0 1 17.3506 55.3394)" class="st0 st5">GitHub:</text>
<text transform="matrix(1 0 0 1 101.0371 55.3394)" class="st4 st0 st5">github.com/AjjMarx</text>
<text transform="matrix(1 0 0 1 17.3506 67.2944)" class="st0 st5">Tec</text>
<text transform="matrix(1 0 0 1 35.2861 67.2944)" class="st0 st5 st6">h</text>
<text transform="matrix(1 0 0 1 47.2422 67.2944)" class="st0 st5">Blog:</text>
<text transform="matrix(1 0 0 1 101.0371 67.2944)" class="st4 st0 st5">ajjmarx.github.io/</text>
<line class="st8" x1="52.9" y1="75.8" x2="506.5" y2="75.8"/>
<text transform="matrix(1 0 0 1 3.0039 92.9717)" class="st9 st10">Education:</text>
<text transform="matrix(1 0 0 1 17.3506 112.0996)" class="st9 st3">Universit</text>
<text transform="matrix(1 0 0 1 81.919 112.0996)" class="st9 st3 st11">y</text>
<text transform="matrix(1 0 0 1 96.2666 112.0996)" class="st9 st3">o</text>
<text transform="matrix(1 0 0 1 103.4409 112.0996)" class="st9 st3 st11">f</text>
<text transform="matrix(1 0 0 1 117.7881 112.0996)" class="st9 st3">Michigan</text>
<text transform="matrix(1 0 0 1 175.1606 112.0996)" class="st0 st3 st11">,</text>
<text transform="matrix(1 0 0 1 189.5078 112.0996)" class="st0 st3">An</text>
<text transform="matrix(1 0 0 1 203.8564 112.0996)" class="st0 st3 st11">n</text>
<text transform="matrix(1 0 0 1 218.2041 112.0996)" class="st0 st3">Arbor</text>
<text transform="matrix(1 0 0 1 254.0756 112.0996)" class="st0 st3 st11">,</text>
<text transform="matrix(1 0 0 1 268.4228 112.0996)" class="st0 st3">MI</text>
<text transform="matrix(1 0 0 1 300.6909 112.0996)" class="st0 st5">(Jan</text>
<text transform="matrix(1 0 0 1 324.605 112.0996)" class="st0 st5 st6">.</text>
<text transform="matrix(1 0 0 1 336.561 112.0996)" class="st0 st5">202</text>
<text transform="matrix(1 0 0 1 354.4966 112.0996)" class="st0 st5 st6">5-</text>
<text transform="matrix(1 0 0 1 378.4087 112.0996)" class="st0 st5">Dec</text>
<text transform="matrix(1 0 0 1 396.3442 112.0996)" class="st0 st5 st6">.</text>
<text transform="matrix(1 0 0 1 408.3003 112.0996)" class="st0 st5">202</text>
<text transform="matrix(1 0 0 1 426.2358 112.0996)" class="st0 st5 st6">7</text>
<text transform="matrix(1 0 0 1 438.1919 112.0996)" class="st0 st5">Expected)</text>
<text transform="matrix(1 0 0 1 17.3506 124.0547)" class="st0 st5 st12">°</text>
<text transform="matrix(1 0 0 1 35.2842 124.0547)" class="st0 st5">B</text>
<text transform="matrix(1 0 0 1 41.2627 124.0547)" class="st0 st5 st6">S</text>
<text transform="matrix(1 0 0 1 53.2188 124.0547)" class="st0 st5">Compute</text>
<text transform="matrix(1 0 0 1 95.0684 124.0547)" class="st0 st5 st6">r</text>
<text transform="matrix(1 0 0 1 107.0249 124.0547)" class="st0 st5">Science</text>
<line class="st13" x1="35.3" y1="127" x2="148.9" y2="127"/>
<text transform="matrix(1 0 0 1 17.3506 136.0098)" class="st0 st5 st12">°</text>
<text transform="matrix(1 0 0 1 35.2842 136.0098)" class="st0 st5">B</text>
<text transform="matrix(1 0 0 1 41.2627 136.0098)" class="st0 st5 st6">S</text>
<text transform="matrix(1 0 0 1 53.2188 136.0098)" class="st0 st5">Mathematica</text>
<text transform="matrix(1 0 0 1 118.9829 136.0098)" class="st0 st5 st6">l</text>
<text transform="matrix(1 0 0 1 130.939 136.0098)" class="st0 st5">Science</text>
<text transform="matrix(1 0 0 1 172.7886 136.0098)" class="st0 st5 st6">s</text>
<text transform="matrix(1 0 0 1 184.7446 136.0098)" class="st0 st5">(Biology)</text>
<line class="st13" x1="35.3" y1="138.9" x2="238.5" y2="138.9"/>
<text transform="matrix(1 0 0 1 17.3506 154.7285)" class="st9 st5">Washtena</text>
<text transform="matrix(1 0 0 1 65.1787 154.7285)" class="st9 st5 st6">w</text>
<text transform="matrix(1 0 0 1 77.1348 154.7285)" class="st9 st5">Communit</text>
<text transform="matrix(1 0 0 1 124.9634 154.7285)" class="st9 st5 st6">y</text>
<text transform="matrix(1 0 0 1 136.9194 154.7285)" class="st9 st5">College</text>
<text transform="matrix(1 0 0 1 184.7241 154.7285)" class="st0 st5">(Sept</text>
<text transform="matrix(1 0 0 1 214.6167 154.7285)" class="st0 st5 st6">.</text>
<text transform="matrix(1 0 0 1 226.5727 154.7285)" class="st0 st5">202</text>
<text transform="matrix(1 0 0 1 244.5083 154.7285)" class="st0 st5 st6">2-</text>
<text transform="matrix(1 0 0 1 268.4204 154.7285)" class="st0 st5">Dec</text>
<text transform="matrix(1 0 0 1 286.3559 154.7285)" class="st0 st5 st6">.</text>
<text transform="matrix(1 0 0 1 298.312 154.7285)" class="st0 st5">202</text>
<text transform="matrix(1 0 0 1 316.2475 154.7285)" class="st0 st5 st6">4</text>
<text transform="matrix(1 0 0 1 328.2036 154.7285)" class="st0 st5">Transfer)</text>
<text transform="matrix(1 0 0 1 17.3506 166.6836)" class="st0 st5 st12">°</text>
<text transform="matrix(1 0 0 1 35.2842 166.6836)" class="st0 st5">GPA</text>
<text transform="matrix(1 0 0 1 53.2197 166.6836)" class="st0 st5 st6">:</text>
<text transform="matrix(1 0 0 1 65.1758 166.6836)" class="st0 st5">3.7</text>
<text transform="matrix(1 0 0 1 83.1113 166.6836)" class="st0 st5 st6">,</text>
<text transform="matrix(1 0 0 1 95.0674 166.6836)" class="st0 st5">Dean’</text>
<text transform="matrix(1 0 0 1 124.9605 166.6836)" class="st0 st5 st6">s</text>
<text transform="matrix(1 0 0 1 136.9165 166.6836)" class="st0 st5">lis</text>
<text transform="matrix(1 0 0 1 154.8521 166.6836)" class="st0 st5 st6">t</text>
<text transform="matrix(1 0 0 1 166.8081 166.6836)" class="st0 st5">(2024)</text>
<line class="st8" x1="109.6" y1="179.4" x2="449.8" y2="179.4"/>
<text transform="matrix(1 0 0 1 3.0039 189.5977)" class="st9 st10">Experience:</text>
<text transform="matrix(1 0 0 1 17.3506 204.1436)" class="st9 st5">Softwar</text>
<text transform="matrix(1 0 0 1 59.2002 204.1436)" class="st9 st5 st6">e</text>
<text transform="matrix(1 0 0 1 71.1563 204.1436)" class="st9 st5">Eng</text>
<text transform="matrix(1 0 0 1 89.0918 204.1436)" class="st9 st5 st12">.</text>
<text transform="matrix(1 0 0 1 107.0259 204.1436)" class="st9 st5">Research</text>
<text transform="matrix(1 0 0 1 154.854 204.1436)" class="st9 st5 st12">:</text>
<text transform="matrix(1 0 0 1 172.7876 204.1436)" class="st9 st5">Undergraduat</text>
<text transform="matrix(1 0 0 1 244.5298 204.1436)" class="st9 st5 st6">e</text>
<text transform="matrix(1 0 0 1 256.4859 204.1436)" class="st9 st5">Researc</text>
<text transform="matrix(1 0 0 1 298.3355 204.1436)" class="st9 st5 st6">h</text>
<text transform="matrix(1 0 0 1 310.2915 204.1436)" class="st9 st5">Opportunit</text>
<text transform="matrix(1 0 0 1 370.0767 204.1436)" class="st9 st5 st6">y</text>
<text transform="matrix(1 0 0 1 382.0327 204.1436)" class="st9 st5">Program</text>
<text transform="matrix(1 0 0 1 423.8286 204.1436)" class="st0 st5">(Sept</text>
<text transform="matrix(1 0 0 1 453.7212 204.1436)" class="st0 st5 st6">.</text>
<text transform="matrix(1 0 0 1 465.6772 204.1436)" class="st0 st5">202</text>
<text transform="matrix(1 0 0 1 483.6128 204.1436)" class="st0 st5 st6">5-</text>
<text transform="matrix(1 0 0 1 507.5249 204.1436)" class="st0 st5">Present):</text>
<text transform="matrix(1 0 0 1 17.3506 215.1025)" class="st0 st5">•</text>
<text transform="matrix(1 0 0 1 29.3062 215.1025)" class="st14 st5">Reinventin</text>
<text transform="matrix(1 0 0 1 89.0914 215.1025)" class="st14 st5 st6">g</text>
<text transform="matrix(1 0 0 1 101.0474 215.1025)" class="st14 st5">Programmin</text>
<text transform="matrix(1 0 0 1 160.8331 215.1025)" class="st14 st5 st6">g</text>
<text transform="matrix(1 0 0 1 172.7891 215.1025)" class="st14 st5">i</text>
<text transform="matrix(1 0 0 1 178.7676 215.1025)" class="st14 st5 st6">n</text>
<text transform="matrix(1 0 0 1 190.7237 215.1025)" class="st14 st5">Socia</text>
<text transform="matrix(1 0 0 1 220.6163 215.1025)" class="st14 st5 st6">l</text>
<text transform="matrix(1 0 0 1 232.5723 215.1025)" class="st14 st5">Studies</text>
<text transform="matrix(1 0 0 1 274.4219 215.1025)" class="st14 st5 st6">,</text>
<text transform="matrix(1 0 0 1 286.3785 215.1025)" class="st14 st5">Mathematics</text>
<text transform="matrix(1 0 0 1 352.1421 215.1025)" class="st14 st5 st6">,</text>
<text transform="matrix(1 0 0 1 364.0982 215.1025)" class="st14 st5">an</text>
<text transform="matrix(1 0 0 1 376.0552 215.1025)" class="st14 st5 st6">d</text>
<text transform="matrix(1 0 0 1 388.0113 215.1025)" class="st14 st5">Languag</text>
<text transform="matrix(1 0 0 1 429.8609 215.1025)" class="st14 st5 st6">e</text>
<text transform="matrix(1 0 0 1 441.8169 215.1025)" class="st14 st5">Art</text>
<text transform="matrix(1 0 0 1 459.7525 215.1025)" class="st14 st5 st6">s</text>
<text transform="matrix(1 0 0 1 471.7085 215.1025)" class="st14 st5">Classes</text>
<text transform="matrix(1 0 0 1 17.3506 226.0615)" class="st0 st5 st6">•</text>
<text transform="matrix(1 0 0 1 29.3067 226.0615)" class="st0 st5">Principa</text>
<text transform="matrix(1 0 0 1 77.1348 226.0615)" class="st0 st5 st6">l</text>
<text transform="matrix(1 0 0 1 89.0908 226.0615)" class="st0 st5">Investigator</text>
<line class="st13" x1="29.3" y1="229" x2="160.8" y2="229"/>
<text transform="matrix(1 0 0 1 160.813 226.0615)" class="st0 st5 st12">:</text>
<text transform="matrix(1 0 0 1 178.7466 226.0615)" class="st0 st5">Prof</text>
<text transform="matrix(1 0 0 1 202.6607 226.0615)" class="st0 st5 st6">.</text>
<text transform="matrix(1 0 0 1 214.6167 226.0615)" class="st0 st5">Mar</text>
<text transform="matrix(1 0 0 1 232.5523 226.0615)" class="st0 st5 st6">k</text>
<text transform="matrix(1 0 0 1 244.5083 226.0615)" class="st0 st5">Guzdial</text>
<line class="st13" x1="214.6" y1="227.6" x2="286.3" y2="227.6"/>
<text transform="matrix(1 0 0 1 286.3413 226.0615)" class="st0 st5 st6">,</text>
<text transform="matrix(1 0 0 1 298.2974 226.0615)" class="st0 st5">Directo</text>
<text transform="matrix(1 0 0 1 340.147 226.0615)" class="st0 st5 st6">r</text>
<text transform="matrix(1 0 0 1 352.103 226.0615)" class="st0 st5">o</text>
<text transform="matrix(1 0 0 1 358.0815 226.0615)" class="st0 st5 st6">f</text>
<text transform="matrix(1 0 0 1 370.0376 226.0615)" class="st0 st5">PCAS</text>
<text transform="matrix(1 0 0 1 399.8647 226.0615)" class="st0 st5">a</text>
<text transform="matrix(1 0 0 1 405.8433 226.0615)" class="st0 st5 st6">t</text>
<text transform="matrix(1 0 0 1 417.7993 226.0615)" class="st0 st5">Michigan</text>
<text transform="matrix(1 0 0 1 17.3506 237.0195)" class="st0 st5 st6">•</text>
<text transform="matrix(1 0 0 1 29.3067 237.0195)" class="st0 st5">Role</text>
<line class="st13" x1="29.3" y1="238.6" x2="53.2" y2="238.6"/>
<text transform="matrix(1 0 0 1 53.2158 237.0195)" class="st0 st5 st12">:</text>
<text transform="matrix(1 0 0 1 71.1494 237.0195)" class="st0 st5">Developin</text>
<text transform="matrix(1 0 0 1 124.956 237.0195)" class="st0 st5 st6">g</text>
<text transform="matrix(1 0 0 1 136.9121 237.0195)" class="st0 st5">a</text>
<text transform="matrix(1 0 0 1 148.8574 237.0195)" class="st9 st5">Grap</text>
<text transform="matrix(1 0 0 1 172.7715 237.0195)" class="st9 st5 st6">h</text>
<text transform="matrix(1 0 0 1 184.7275 237.0195)" class="st9 st5">Theor</text>
<text transform="matrix(1 0 0 1 214.6201 237.0195)" class="st9 st5 st6">y</text>
<text transform="matrix(1 0 0 1 226.5762 237.0195)" class="st9 st5">Educationa</text>
<text transform="matrix(1 0 0 1 286.3618 237.0195)" class="st9 st5 st6">l</text>
<text transform="matrix(1 0 0 1 298.3178 237.0195)" class="st9 st5">Programmin</text>
<text transform="matrix(1 0 0 1 358.103 237.0195)" class="st9 st5 st6">g</text>
<text transform="matrix(1 0 0 1 370.0591 237.0195)" class="st9 st5">Language</text>
<text transform="matrix(1 0 0 1 423.8276 237.0195)" class="st0 st5">fo</text>
<text transform="matrix(1 0 0 1 435.7846 237.0195)" class="st0 st5 st6">r</text>
<text transform="matrix(1 0 0 1 447.7407 237.0195)" class="st0 st5">us</text>
<text transform="matrix(1 0 0 1 459.6977 237.0195)" class="st0 st5 st6">e</text>
<text transform="matrix(1 0 0 1 471.6538 237.0195)" class="st0 st5">i</text>
<text transform="matrix(1 0 0 1 477.6323 237.0195)" class="st0 st5 st6">n</text>
<text transform="matrix(1 0 0 1 489.5883 237.0195)" class="st0 st5">schools.</text>
<text transform="matrix(1 0 0 1 23.3276 247.8345)" class="st0 st15 st12">&gt;</text>
<text transform="matrix(1 0 0 1 40.6606 247.8345)" class="st0 st15">Engineere</text>
<text transform="matrix(1 0 0 1 89.0869 247.8345)" class="st0 st15 st6">d</text>
<text transform="matrix(1 0 0 1 99.8476 247.8345)" class="st0 st15">nativ</text>
<text transform="matrix(1 0 0 1 126.7509 247.8345)" class="st0 st15 st6">e</text>
<text transform="matrix(1 0 0 1 137.5117 247.8345)" class="st0 st15">JavaScript</text>
<line class="st16" x1="137.5" y1="250.5" x2="191.3" y2="250.5"/>
<text transform="matrix(1 0 0 1 196.6777 247.8345)" class="st0 st15">cod</text>
<text transform="matrix(1 0 0 1 212.8198 247.8345)" class="st0 st15 st6">e</text>
<text transform="matrix(1 0 0 1 223.5805 247.8345)" class="st0 st15">t</text>
<text transform="matrix(1 0 0 1 228.9609 247.8345)" class="st0 st15 st6">o</text>
<text transform="matrix(1 0 0 1 239.7216 247.8345)" class="st0 st15">generat</text>
<text transform="matrix(1 0 0 1 277.3867 247.8345)" class="st0 st15 st6">e</text>
<text transform="matrix(1 0 0 1 288.1469 247.8345)" class="st0 st15">an</text>
<text transform="matrix(1 0 0 1 298.9087 247.8345)" class="st0 st15 st6">d</text>
<text transform="matrix(1 0 0 1 309.6694 247.8345)" class="st0 st15">execut</text>
<text transform="matrix(1 0 0 1 341.9536 247.8345)" class="st0 st15 st6">e</text>
<text transform="matrix(1 0 0 1 352.7143 247.8345)" class="st0 st15">drag-and-drop</text>
<line class="st16" x1="352.7" y1="250.5" x2="422.6" y2="250.5"/>
<text transform="matrix(1 0 0 1 428.0093 247.8345)" class="st0 st15">SV</text>
<text transform="matrix(1 0 0 1 438.771 247.8345)" class="st0 st15 st6">G</text>
<text transform="matrix(1 0 0 1 449.5308 247.8345)" class="st0 st15">programmin</text>
<text transform="matrix(1 0 0 1 503.3384 247.8345)" class="st0 st15 st6">g</text>
<text transform="matrix(1 0 0 1 514.0991 247.8345)" class="st0 st15">blocks.</text>
<text transform="matrix(1 0 0 1 23.3276 258.7935)" class="st0 st15 st12">&gt;</text>
<text transform="matrix(1 0 0 1 40.6606 258.7935)" class="st0 st15">Develope</text>
<text transform="matrix(1 0 0 1 83.706 258.7935)" class="st0 st15 st6">d</text>
<text transform="matrix(1 0 0 1 94.4668 258.7935)" class="st0 st15">WebGL</text>
<line class="st16" x1="94.5" y1="260.3" x2="121.4" y2="260.3"/>
<text transform="matrix(1 0 0 1 126.7397 258.7935)" class="st0 st15">graphic</text>
<text transform="matrix(1 0 0 1 164.4047 258.7935)" class="st0 st15 st6">s</text>
<text transform="matrix(1 0 0 1 175.165 258.7935)" class="st0 st15">pipelin</text>
<text transform="matrix(1 0 0 1 212.83 258.7935)" class="st0 st15 st6">e</text>
<text transform="matrix(1 0 0 1 223.5908 258.7935)" class="st0 st15">an</text>
<text transform="matrix(1 0 0 1 234.352 258.7935)" class="st0 st15 st6">d</text>
<text transform="matrix(1 0 0 1 245.1127 258.7935)" class="st0 st15">equation</text>
<text transform="matrix(1 0 0 1 288.1586 258.7935)" class="st0 st15 st6">s</text>
<text transform="matrix(1 0 0 1 298.9184 258.7935)" class="st0 st15">t</text>
<text transform="matrix(1 0 0 1 304.2993 258.7935)" class="st0 st15 st6">o</text>
<text transform="matrix(1 0 0 1 315.06 258.7935)" class="st0 st15">rende</text>
<text transform="matrix(1 0 0 1 341.9633 258.7935)" class="st0 st15 st6">r</text>
<text transform="matrix(1 0 0 1 352.7241 258.7935)" class="st0 st15">interactiv</text>
<text transform="matrix(1 0 0 1 406.5317 258.7935)" class="st0 st15 st6">e</text>
<text transform="matrix(1 0 0 1 417.2915 258.7935)" class="st0 st15">3</text>
<text transform="matrix(1 0 0 1 422.6723 258.7935)" class="st0 st15 st6">D</text>
<text transform="matrix(1 0 0 1 433.4331 258.7935)" class="st0 st15">texture</text>
<text transform="matrix(1 0 0 1 471.0981 258.7935)" class="st0 st15 st6">d</text>
<text transform="matrix(1 0 0 1 481.8588 258.7935)" class="st0 st15">globe.</text>
<text transform="matrix(1 0 0 1 23.3276 269.7524)" class="st0 st15 st12">&gt;</text>
<text transform="matrix(1 0 0 1 40.6606 269.7524)" class="st0 st15">Documente</text>
<text transform="matrix(1 0 0 1 89.0869 269.7524)" class="st0 st15 st6">d</text>
<text transform="matrix(1 0 0 1 99.8476 269.7524)" class="st0 st15">researc</text>
<text transform="matrix(1 0 0 1 137.5122 269.7524)" class="st0 st15 st6">h</text>
<text transform="matrix(1 0 0 1 148.2729 269.7524)" class="st0 st15">proces</text>
<text transform="matrix(1 0 0 1 180.5571 269.7524)" class="st0 st15 st6">s</text>
<text transform="matrix(1 0 0 1 191.3178 269.7524)" class="st0 st15">fo</text>
<text transform="matrix(1 0 0 1 202.0791 269.7524)" class="st0 st15 st6">r</text>
<text transform="matrix(1 0 0 1 212.8398 269.7524)" class="st0 st15">locatin</text>
<text transform="matrix(1 0 0 1 250.5048 269.7524)" class="st0 st15 st6">g</text>
<text transform="matrix(1 0 0 1 261.2651 269.7524)" class="st0 st15">entr</text>
<text transform="matrix(1 0 0 1 282.7876 269.7524)" class="st0 st15 st6">y</text>
<text transform="matrix(1 0 0 1 293.5483 269.7524)" class="st0 st15">point</text>
<text transform="matrix(1 0 0 1 320.4516 269.7524)" class="st0 st15 st6">s</text>
<text transform="matrix(1 0 0 1 331.2124 269.7524)" class="st0 st15">fo</text>
<text transform="matrix(1 0 0 1 341.9741 269.7524)" class="st0 st15 st6">r</text>
<text transform="matrix(1 0 0 1 352.7348 269.7524)" class="st0 st15">lesson</text>
<text transform="matrix(1 0 0 1 385.019 269.7524)" class="st0 st15 st6">s</text>
<text transform="matrix(1 0 0 1 395.7797 269.7524)" class="st0 st15">an</text>
<text transform="matrix(1 0 0 1 406.5405 269.7524)" class="st0 st15 st6">d</text>
<text transform="matrix(1 0 0 1 417.3012 269.7524)" class="st0 st15">idea</text>
<text transform="matrix(1 0 0 1 438.8237 269.7524)" class="st0 st15 st6">l</text>
<text transform="matrix(1 0 0 1 449.5844 269.7524)" class="st0 st15">pedagog</text>
<text transform="matrix(1 0 0 1 487.2495 269.7524)" class="st0 st15 st6">y</text>
<text transform="matrix(1 0 0 1 498.0102 269.7524)" class="st0 st15">i</text>
<text transform="matrix(1 0 0 1 503.3911 269.7524)" class="st0 st15 st6">n</text>
<text transform="matrix(1 0 0 1 514.1518 269.7524)" class="st0 st15">design.</text>
<text transform="matrix(1 0 0 1 17.3506 279.7695)" class="st0 st15">Code</text>
<line class="st16" x1="17.4" y1="281.2" x2="38.9" y2="281.2"/>
<text transform="matrix(1 0 0 1 38.8696 279.7695)" class="st0 st15">:</text>
<text transform="matrix(1 0 0 1 55.0093 279.7695)" class="st4 st0 st15">github.com/AjjMarx/TeaspoonGraph</text>
<text transform="matrix(1 0 0 1 227.166 279.7695)" class="st0 st15 st17">,</text>
<text transform="matrix(1 0 0 1 248.686 279.7695)" class="st0 st15">interactiv</text>
<text transform="matrix(1 0 0 1 302.4936 279.7695)" class="st0 st15 st6">e</text>
<text transform="matrix(1 0 0 1 313.2534 279.7695)" class="st0 st15">Demo</text>
<line class="st16" x1="248.7" y1="281.2" x2="334.8" y2="281.2"/>
<text transform="matrix(1 0 0 1 334.7593 279.7695)" class="st0 st15">:</text>
<text transform="matrix(1 0 0 1 350.8989 279.7695)" class="st4 st0 st15">ajjmarx.github.io/TeaspoonGraph/</text>
<text transform="matrix(1 0 0 1 17.3506 297.7026)" class="st9 st5">Mathematic</text>
<text transform="matrix(1 0 0 1 77.1358 297.7026)" class="st9 st5 st6">s</text>
<text transform="matrix(1 0 0 1 89.0918 297.7026)" class="st9 st5">Research</text>
<text transform="matrix(1 0 0 1 136.9204 297.7026)" class="st9 st5 st12">:</text>
<text transform="matrix(1 0 0 1 154.854 297.7026)" class="st9 st5">La</text>
<text transform="matrix(1 0 0 1 166.811 297.7026)" class="st9 st5 st6">b</text>
<text transform="matrix(1 0 0 1 178.7671 297.7026)" class="st9 st5">o</text>
<text transform="matrix(1 0 0 1 184.7456 297.7026)" class="st9 st5 st6">f</text>
<text transform="matrix(1 0 0 1 196.7017 297.7026)" class="st9 st5">Geometr</text>
<text transform="matrix(1 0 0 1 238.5513 297.7026)" class="st9 st5 st6">y</text>
<text transform="matrix(1 0 0 1 250.5073 297.7026)" class="st9 st5">a</text>
<text transform="matrix(1 0 0 1 256.4859 297.7026)" class="st9 st5 st6">t</text>
<text transform="matrix(1 0 0 1 268.4419 297.7026)" class="st9 st5">Michiga</text>
<text transform="matrix(1 0 0 1 310.2915 297.7026)" class="st9 st5 st6">n</text>
<text transform="matrix(1 0 0 1 322.2476 297.7026)" class="st9 st5">(</text>
<text transform="matrix(1 0 0 1 328.187 297.7026)" class="st18 st5">LoG(M)</text>
<text transform="matrix(1 0 0 1 364.0581 297.7026)" class="st18 st5 st6">,</text>
<text transform="matrix(1 0 0 1 376.0141 297.7026)" class="st18 st5">MAT</text>
<text transform="matrix(1 0 0 1 393.9497 297.7026)" class="st18 st5 st6">H</text>
<text transform="matrix(1 0 0 1 405.9058 297.7026)" class="st18 st5">440</text>
<text transform="matrix(1 0 0 1 423.8286 297.7026)" class="st9 st5">)</text>
<text transform="matrix(1 0 0 1 435.7837 297.7026)" class="st0 st5">(Jan</text>
<text transform="matrix(1 0 0 1 459.6978 297.7026)" class="st0 st5 st6">.</text>
<text transform="matrix(1 0 0 1 471.6538 297.7026)" class="st0 st5">202</text>
<text transform="matrix(1 0 0 1 489.5894 297.7026)" class="st0 st5 st6">6-</text>
<text transform="matrix(1 0 0 1 513.5015 297.7026)" class="st0 st5">Present):</text>
<text transform="matrix(1 0 0 1 17.3506 308.6616)" class="st0 st5">•</text>
<text transform="matrix(1 0 0 1 29.3062 308.6616)" class="st14 st5">Explorin</text>
<text transform="matrix(1 0 0 1 77.1343 308.6616)" class="st14 st5 st6">g</text>
<text transform="matrix(1 0 0 1 89.0904 308.6616)" class="st14 st5">Domain</text>
<text transform="matrix(1 0 0 1 124.962 308.6616)" class="st14 st5 st6">s</text>
<text transform="matrix(1 0 0 1 136.918 308.6616)" class="st14 st5">o</text>
<text transform="matrix(1 0 0 1 142.8965 308.6616)" class="st14 st5 st6">f</text>
<text transform="matrix(1 0 0 1 154.8526 308.6616)" class="st14 st5">Discontinuit</text>
<text transform="matrix(1 0 0 1 226.5948 308.6616)" class="st14 st5 st6">y</text>
<text transform="matrix(1 0 0 1 238.5508 308.6616)" class="st14 st5">in</text>
<text transform="matrix(1 0 0 1 256.4551 308.6616)" class="st19 st5">ℝ</text>
<text transform="matrix(1 0 0 1 263.6489 305.0464)" class="st19 st20">3</text>
<text transform="matrix(1 0 0 1 17.3506 319.6206)" class="st0 st5">•</text>
<text transform="matrix(1 0 0 1 29.3091 319.6206)" class="st0 st15">Facult</text>
<text transform="matrix(1 0 0 1 61.5933 319.6206)" class="st0 st15 st6">y</text>
<text transform="matrix(1 0 0 1 72.354 319.6206)" class="st0 st15">Advisors</text>
<line class="st16" x1="29.3" y1="322.3" x2="115.4" y2="322.3"/>
<text transform="matrix(1 0 0 1 115.3828 319.6206)" class="st0 st15 st21">:</text>
<text transform="matrix(1 0 0 1 131.5234 319.6206)" class="st0 st15">Alejandr</text>
<text transform="matrix(1 0 0 1 174.5688 319.6206)" class="st0 st15 st6">o</text>
<text transform="matrix(1 0 0 1 185.3296 319.6206)" class="st0 st15">Bravo-Doddoli</text>
<text transform="matrix(1 0 0 1 255.2788 319.6206)" class="st0 st15 st6">,</text>
<text transform="matrix(1 0 0 1 266.039 319.6206)" class="st0 st15">Nez</text>
<text transform="matrix(1 0 0 1 282.1811 319.6206)" class="st0 st15 st6">a</text>
<text transform="matrix(1 0 0 1 292.9419 319.6206)" class="st0 st15">Zage</text>
<text transform="matrix(1 0 0 1 314.4643 319.6206)" class="st0 st15 st6">r</text>
<text transform="matrix(1 0 0 1 325.2251 319.6206)" class="st0 st15">Korenjak</text>
<text transform="matrix(1 0 0 1 17.3506 330.5796)" class="st0 st15 st6">•</text>
<text transform="matrix(1 0 0 1 28.1113 330.5796)" class="st0 st15">Team-based</text>
<line class="st16" x1="28.1" y1="332" x2="81.9" y2="332"/>
<text transform="matrix(1 0 0 1 87.2876 330.5796)" class="st0 st15">computationa</text>
<text transform="matrix(1 0 0 1 151.856 330.5796)" class="st0 st15 st6">l</text>
<text transform="matrix(1 0 0 1 162.6167 330.5796)" class="st0 st15">mathematic</text>
<text transform="matrix(1 0 0 1 216.4238 330.5796)" class="st0 st15 st6">s</text>
<text transform="matrix(1 0 0 1 227.1841 330.5796)" class="st0 st15">researc</text>
<text transform="matrix(1 0 0 1 264.8491 330.5796)" class="st0 st15 st6">h</text>
<text transform="matrix(1 0 0 1 275.6099 330.5796)" class="st0 st15">int</text>
<text transform="matrix(1 0 0 1 291.7515 330.5796)" class="st0 st15 st6">o</text>
<text transform="matrix(1 0 0 1 302.5122 330.5796)" class="st0 st15">dynamic</text>
<text transform="matrix(1 0 0 1 340.1772 330.5796)" class="st0 st15 st6">s</text>
<text transform="matrix(1 0 0 1 350.938 330.5796)" class="st0 st15">o</text>
<text transform="matrix(1 0 0 1 356.3189 330.5796)" class="st0 st15 st6">f</text>
<text transform="matrix(1 0 0 1 367.0796 330.5796)" class="st0 st15">linea</text>
<text transform="matrix(1 0 0 1 393.9829 330.5796)" class="st0 st15 st6">r</text>
<text transform="matrix(1 0 0 1 404.7437 330.5796)" class="st0 st15">transformations</text>
<line class="st16" x1="302.5" y1="333.3" x2="485.4" y2="333.3"/>
<text transform="matrix(1 0 0 1 485.395 330.5796)" class="st0 st15">.</text>
<text transform="matrix(1 0 0 1 17.3506 345.0254)" class="st9 st5">Volunteer</text>
<text transform="matrix(1 0 0 1 71.1572 345.0254)" class="st9 st5 st12">:</text>
<text transform="matrix(1 0 0 1 89.0908 345.0254)" class="st9 st5">Girl</text>
<text transform="matrix(1 0 0 1 113.0054 345.0254)" class="st9 st5 st6">s</text>
<text transform="matrix(1 0 0 1 124.9614 345.0254)" class="st9 st5">i</text>
<text transform="matrix(1 0 0 1 130.94 345.0254)" class="st9 st5 st6">n</text>
<text transform="matrix(1 0 0 1 142.896 345.0254)" class="st9 st5">Electrica</text>
<text transform="matrix(1 0 0 1 196.7027 345.0254)" class="st9 st5 st6">l</text>
<text transform="matrix(1 0 0 1 208.6587 345.0254)" class="st9 st5">Engineerin</text>
<text transform="matrix(1 0 0 1 268.4439 345.0254)" class="st9 st5 st6">g</text>
<text transform="matrix(1 0 0 1 280.3999 345.0254)" class="st9 st5">an</text>
<text transform="matrix(1 0 0 1 292.3569 345.0254)" class="st9 st5 st6">d</text>
<text transform="matrix(1 0 0 1 304.313 345.0254)" class="st9 st5">Compute</text>
<text transform="matrix(1 0 0 1 346.1626 345.0254)" class="st9 st5 st6">r</text>
<text transform="matrix(1 0 0 1 358.1187 345.0254)" class="st9 st5">Science</text>
<text transform="matrix(1 0 0 1 405.896 345.0254)" class="st0 st5">(Sept</text>
<text transform="matrix(1 0 0 1 435.7886 345.0254)" class="st0 st5 st6">.</text>
<text transform="matrix(1 0 0 1 447.7446 345.0254)" class="st0 st5">202</text>
<text transform="matrix(1 0 0 1 465.6802 345.0254)" class="st0 st5 st6">5-</text>
<text transform="matrix(1 0 0 1 489.5923 345.0254)" class="st0 st5">Present)</text>
<text transform="matrix(1 0 0 1 17.3506 356.981)" class="st0 st5">•</text>
<text transform="matrix(1 0 0 1 29.3091 356.981)" class="st0 st15">Collaborativel</text>
<text transform="matrix(1 0 0 1 104.6392 356.981)" class="st0 st15 st6">y</text>
<text transform="matrix(1 0 0 1 115.3994 356.981)" class="st0 st15">designe</text>
<text transform="matrix(1 0 0 1 153.0645 356.981)" class="st0 st15 st6">d</text>
<text transform="matrix(1 0 0 1 163.8252 356.981)" class="st0 st15">an</text>
<text transform="matrix(1 0 0 1 174.5864 356.981)" class="st0 st15 st6">d</text>
<text transform="matrix(1 0 0 1 185.3472 356.981)" class="st0 st15">taugh</text>
<text transform="matrix(1 0 0 1 212.2505 356.981)" class="st0 st15 st6">ta</text>
<text transform="matrix(1 0 0 1 233.7715 356.981)" class="st0 st15">lesso</text>
<text transform="matrix(1 0 0 1 260.6753 356.981)" class="st0 st15 st6">n</text>
<text transform="matrix(1 0 0 1 271.4356 356.981)" class="st0 st15">i</text>
<text transform="matrix(1 0 0 1 276.8164 356.981)" class="st0 st15 st6">n</text>
<text transform="matrix(1 0 0 1 287.5767 356.981)" class="st0 st15">introductor</text>
<text transform="matrix(1 0 0 1 346.7652 356.981)" class="st0 st15 st6">y</text>
<text transform="matrix(1 0 0 1 357.5249 356.981)" class="st0 st15">compute</text>
<text transform="matrix(1 0 0 1 395.19 356.981)" class="st0 st15 st6">r</text>
<text transform="matrix(1 0 0 1 405.9419 356.981)" class="st0 st15">scienc</text>
<text transform="matrix(1 0 0 1 438.2261 356.981)" class="st0 st15 st6">e</text>
<text transform="matrix(1 0 0 1 448.9868 356.981)" class="st0 st15">t</text>
<text transform="matrix(1 0 0 1 454.3677 356.981)" class="st0 st15 st6">o</text>
<text transform="matrix(1 0 0 1 465.1275 356.981)" class="st0 st15">severa</text>
<text transform="matrix(1 0 0 1 497.4116 356.981)" class="st0 st15 st6">l</text>
<text transform="matrix(1 0 0 1 508.1724 356.981)" class="st0 st15">groups</text>
<text transform="matrix(1 0 0 1 28.1099 368.936)" class="st0 st15">o</text>
<text transform="matrix(1 0 0 1 33.4908 368.936)" class="st0 st15 st6">f</text>
<text transform="matrix(1 0 0 1 44.251 368.936)" class="st0 st15">40-50</text>
<line class="st16" x1="44.2" y1="370.4" x2="71.1" y2="370.4"/>
<text transform="matrix(1 0 0 1 71.1489 368.936)" class="st0 st15 st6">,</text>
<text transform="matrix(1 0 0 1 81.9096 368.936)" class="st0 st15">mostl</text>
<text transform="matrix(1 0 0 1 108.813 368.936)" class="st0 st15 st6">y</text>
<text transform="matrix(1 0 0 1 119.5737 368.936)" class="st0 st15">female</text>
<text transform="matrix(1 0 0 1 151.8579 368.936)" class="st0 st15 st6">,</text>
<text transform="matrix(1 0 0 1 162.6181 368.936)" class="st0 st15">elementar</text>
<text transform="matrix(1 0 0 1 211.0449 368.936)" class="st0 st15 st6">y</text>
<text transform="matrix(1 0 0 1 221.8051 368.936)" class="st0 st15">an</text>
<text transform="matrix(1 0 0 1 232.5669 368.936)" class="st0 st15 st6">d</text>
<text transform="matrix(1 0 0 1 243.3271 368.936)" class="st0 st15">middl</text>
<text transform="matrix(1 0 0 1 270.2309 368.936)" class="st0 st15 st6">e</text>
<text transform="matrix(1 0 0 1 280.9917 368.936)" class="st0 st15">schoo</text>
<text transform="matrix(1 0 0 1 307.895 368.936)" class="st0 st15 st6">l</text>
<text transform="matrix(1 0 0 1 318.6557 368.936)" class="st0 st15">students.</text>
<text transform="matrix(1 0 0 1 17.3506 382.8833)" class="st9 st5">Volunteer</text>
<text transform="matrix(1 0 0 1 71.1572 382.8833)" class="st9 st5 st12">:</text>
<text transform="matrix(1 0 0 1 89.0908 382.8833)" class="st9 st5">Mat</text>
<text transform="matrix(1 0 0 1 107.0269 382.8833)" class="st9 st5 st6">h</text>
<text transform="matrix(1 0 0 1 118.9829 382.8833)" class="st9 st5">Corp</text>
<text transform="matrix(1 0 0 1 142.897 382.8833)" class="st9 st5 st6">s</text>
<text transform="matrix(1 0 0 1 154.853 382.8833)" class="st9 st5">(Universit</text>
<text transform="matrix(1 0 0 1 214.6382 382.8833)" class="st9 st5 st6">y</text>
<text transform="matrix(1 0 0 1 226.5943 382.8833)" class="st9 st5">o</text>
<text transform="matrix(1 0 0 1 232.5728 382.8833)" class="st9 st5 st6">f</text>
<text transform="matrix(1 0 0 1 244.5288 382.8833)" class="st9 st5">Michigan)</text>
<text transform="matrix(1 0 0 1 304.2759 382.8833)" class="st0 st5">(Nov</text>
<text transform="matrix(1 0 0 1 328.19 382.8833)" class="st0 st5 st6">.</text>
<text transform="matrix(1 0 0 1 340.146 382.8833)" class="st0 st5">202</text>
<text transform="matrix(1 0 0 1 358.0816 382.8833)" class="st0 st5 st6">5-</text>
<text transform="matrix(1 0 0 1 381.9937 382.8833)" class="st0 st5">Present)</text>
<text transform="matrix(1 0 0 1 17.3506 394.8384)" class="st0 st5 st6">•</text>
<text transform="matrix(1 0 0 1 29.3067 394.8384)" class="st0 st5">Weekl</text>
<text transform="matrix(1 0 0 1 59.1992 394.8384)" class="st0 st5 st6">y</text>
<text transform="matrix(1 0 0 1 71.1553 394.8384)" class="st0 st5">mathematics</text>
<text transform="matrix(1 0 0 1 142.8838 394.8384)" class="st0 st15">tutoring</text>
<line class="st16" x1="142.9" y1="397.5" x2="185.9" y2="397.5"/>
<text transform="matrix(1 0 0 1 191.2979 394.8384)" class="st0 st15">fo</text>
<text transform="matrix(1 0 0 1 202.0591 394.8384)" class="st0 st15 st6">r</text>
<text transform="matrix(1 0 0 1 212.8199 394.8384)" class="st0 st15">middl</text>
<text transform="matrix(1 0 0 1 239.7232 394.8384)" class="st0 st15 st6">e</text>
<text transform="matrix(1 0 0 1 250.4839 394.8384)" class="st0 st15">schoo</text>
<text transform="matrix(1 0 0 1 277.3873 394.8384)" class="st0 st15 st6">l</text>
<text transform="matrix(1 0 0 1 288.148 394.8384)" class="st0 st15">student</text>
<text transform="matrix(1 0 0 1 325.813 394.8384)" class="st0 st15 st6">s</text>
<text transform="matrix(1 0 0 1 336.5738 394.8384)" class="st0 st15">a</text>
<text transform="matrix(1 0 0 1 341.9546 394.8384)" class="st0 st15 st6">t</text>
<text transform="matrix(1 0 0 1 352.7144 394.8384)" class="st0 st15">Ypsilant</text>
<text transform="matrix(1 0 0 1 395.7603 394.8384)" class="st0 st15 st6">i</text>
<text transform="matrix(1 0 0 1 406.521 394.8384)" class="st0 st15">Communit</text>
<text transform="matrix(1 0 0 1 449.5669 394.8384)" class="st0 st15 st6">y</text>
<text transform="matrix(1 0 0 1 460.3267 394.8384)" class="st0 st15">Middl</text>
<text transform="matrix(1 0 0 1 487.231 394.8384)" class="st0 st15 st6">e</text>
<text transform="matrix(1 0 0 1 497.9917 394.8384)" class="st0 st15">School.</text>
<text transform="matrix(1 0 0 1 17.3506 407.7896)" class="st9 st5">Employment</text>
<text transform="matrix(1 0 0 1 77.1358 407.7896)" class="st9 st5 st12">:</text>
<text transform="matrix(1 0 0 1 95.0694 407.7896)" class="st9 st5">Foo</text>
<text transform="matrix(1 0 0 1 113.0054 407.7896)" class="st9 st5 st6">d</text>
<text transform="matrix(1 0 0 1 124.9614 407.7896)" class="st9 st5">Servic</text>
<text transform="matrix(1 0 0 1 160.8325 407.7896)" class="st9 st5 st6">e</text>
<text transform="matrix(1 0 0 1 172.7886 407.7896)" class="st9 st5">(2x)</text>
<text transform="matrix(1 0 0 1 202.6567 407.7896)" class="st0 st5">(2022</text>
<text transform="matrix(1 0 0 1 232.5493 407.7896)" class="st0 st5 st6">,</text>
<text transform="matrix(1 0 0 1 244.5053 407.7896)" class="st0 st5">202</text>
<text transform="matrix(1 0 0 1 262.4409 407.7896)" class="st0 st5 st6">4-</text>
<text transform="matrix(1 0 0 1 286.353 407.7896)" class="st0 st5">2025)</text>
<text transform="matrix(1 0 0 1 17.3506 418.7485)" class="st0 st15 st6">•</text>
<text transform="matrix(1 0 0 1 28.1113 418.7485)" class="st0 st15">Prepare</text>
<text transform="matrix(1 0 0 1 65.7759 418.7485)" class="st0 st15 st6">d</text>
<text transform="matrix(1 0 0 1 76.5366 418.7485)" class="st0 st15">foo</text>
<text transform="matrix(1 0 0 1 92.6787 418.7485)" class="st0 st15 st6">d</text>
<text transform="matrix(1 0 0 1 103.4395 418.7485)" class="st0 st15">i</text>
<text transform="matrix(1 0 0 1 108.8198 418.7485)" class="st0 st15 st6">na</text>
<text transform="matrix(1 0 0 1 130.3413 418.7485)" class="st0 st15">hig</text>
<text transform="matrix(1 0 0 1 146.4834 418.7485)" class="st0 st15 st6">h</text>
<text transform="matrix(1 0 0 1 157.2437 418.7485)" class="st0 st15">stress</text>
<text transform="matrix(1 0 0 1 189.5278 418.7485)" class="st0 st15 st6">,</text>
<text transform="matrix(1 0 0 1 200.2886 418.7485)" class="st0 st15">hierarchical</text>
<text transform="matrix(1 0 0 1 264.8569 418.7485)" class="st0 st15 st6">,</text>
<text transform="matrix(1 0 0 1 275.6177 418.7485)" class="st0 st15">an</text>
<text transform="matrix(1 0 0 1 286.3794 418.7485)" class="st0 st15 st6">d</text>
<text transform="matrix(1 0 0 1 297.1392 418.7485)" class="st0 st15">divers</text>
<text transform="matrix(1 0 0 1 329.4234 418.7485)" class="st0 st15 st6">e</text>
<text transform="matrix(1 0 0 1 340.1841 418.7485)" class="st0 st15">environment</text>
<text transform="matrix(1 0 0 1 399.3726 418.7485)" class="st0 st15 st21">.</text>
<text transform="matrix(1 0 0 1 415.5122 418.7485)" class="st0 st15">Maintaine</text>
<text transform="matrix(1 0 0 1 463.939 418.7485)" class="st0 st15 st6">da</text>
<text transform="matrix(1 0 0 1 485.4595 418.7485)" class="st0 st15">clea</text>
<text transform="matrix(1 0 0 1 506.9829 418.7485)" class="st0 st15 st6">n</text>
<text transform="matrix(1 0 0 1 517.7437 418.7485)" class="st0 st15">kitchen.</text>
<line class="st8" x1="176.6" y1="429.5" x2="449.8" y2="429.5"/>
<text transform="matrix(1 0 0 1 3.0039 439.6704)" class="st9 st10">Additiona</text>
<text transform="matrix(1 0 0 1 80.4858 439.6704)" class="st9 st10 st22">l</text>
<text transform="matrix(1 0 0 1 97.7026 439.6704)" class="st9 st10">Projects:</text>
<text transform="matrix(1 0 0 1 17.3506 454.2153)" class="st9 st5">Persona</text>
<text transform="matrix(1 0 0 1 59.2002 454.2153)" class="st9 st5 st6">l</text>
<text transform="matrix(1 0 0 1 71.1563 454.2153)" class="st9 st5">Site/Tec</text>
<text transform="matrix(1 0 0 1 118.9849 454.2153)" class="st9 st5 st6">h</text>
<text transform="matrix(1 0 0 1 130.9409 454.2153)" class="st9 st5">Blog:</text>
<text transform="matrix(1 0 0 1 160.8135 454.2153)" class="st0 st5">(Sept</text>
<text transform="matrix(1 0 0 1 190.7061 454.2153)" class="st0 st5 st6">.</text>
<text transform="matrix(1 0 0 1 202.6621 454.2153)" class="st0 st5">202</text>
<text transform="matrix(1 0 0 1 220.5977 454.2153)" class="st0 st5 st6">5-</text>
<text transform="matrix(1 0 0 1 244.5098 454.2153)" class="st0 st5">Present)</text>
<text transform="matrix(1 0 0 1 23.3276 464.4175)" class="st0 st15 st12">•</text>
<text transform="matrix(1 0 0 1 40.6606 464.4175)" class="st0 st15">Singl</text>
<text transform="matrix(1 0 0 1 67.5639 464.4175)" class="st0 st15 st6">e</text>
<text transform="matrix(1 0 0 1 78.3247 464.4175)" class="st0 st15">page</text>
<line class="st16" x1="40.7" y1="467.1" x2="99.8" y2="467.1"/>
<text transform="matrix(1 0 0 1 105.2207 464.4175)" class="st0 st15">applicatio</text>
<text transform="matrix(1 0 0 1 159.0278 464.4175)" class="st0 st15 st6">n</text>
<text transform="matrix(1 0 0 1 169.7881 464.4175)" class="st0 st15">(SPA</text>
<text transform="matrix(1 0 0 1 191.311 464.4175)" class="st0 st15 st6">)</text>
<text transform="matrix(1 0 0 1 202.0718 464.4175)" class="st0 st15">writte</text>
<text transform="matrix(1 0 0 1 234.356 464.4175)" class="st0 st15 st6">n</text>
<text transform="matrix(1 0 0 1 245.1167 464.4175)" class="st0 st15">i</text>
<text transform="matrix(1 0 0 1 250.4971 464.4175)" class="st0 st15 st6">n</text>
<text transform="matrix(1 0 0 1 261.2578 464.4175)" class="st0 st15">HTML5</text>
<text transform="matrix(1 0 0 1 288.1616 464.4175)" class="st0 st15 st6">,</text>
<text transform="matrix(1 0 0 1 298.9214 464.4175)" class="st0 st15">JavaScript</text>
<line class="st16" x1="261.2" y1="467.1" x2="352.7" y2="467.1"/>
<text transform="matrix(1 0 0 1 352.6929 464.4175)" class="st0 st15 st6">,</text>
<text transform="matrix(1 0 0 1 363.4536 464.4175)" class="st0 st15">an</text>
<text transform="matrix(1 0 0 1 374.2144 464.4175)" class="st0 st15 st6">d</text>
<text transform="matrix(1 0 0 1 384.9751 464.4175)" class="st0 st15">CSS</text>
<line class="st16" x1="385" y1="465.9" x2="401.1" y2="465.9"/>
<text transform="matrix(1 0 0 1 401.1108 464.4175)" class="st0 st15">.</text>
<text transform="matrix(1 0 0 1 23.3276 475.3755)" class="st0 st15 st12">•</text>
<text transform="matrix(1 0 0 1 40.6606 475.3755)" class="st0 st15">Engineere</text>
<text transform="matrix(1 0 0 1 89.0869 475.3755)" class="st0 st15 st6">d</text>
<text transform="matrix(1 0 0 1 99.8476 475.3755)" class="st0 st15">animated</text>
<line class="st16" x1="99.8" y1="476.8" x2="142.9" y2="476.8"/>
<text transform="matrix(1 0 0 1 148.2598 475.3755)" class="st0 st15">webpag</text>
<text transform="matrix(1 0 0 1 180.544 475.3755)" class="st0 st15 st6">e</text>
<text transform="matrix(1 0 0 1 191.3047 475.3755)" class="st0 st15">transition</text>
<text transform="matrix(1 0 0 1 245.1119 475.3755)" class="st0 st15 st6">s</text>
<text transform="matrix(1 0 0 1 255.8721 475.3755)" class="st0 st15">betwee</text>
<text transform="matrix(1 0 0 1 288.1568 475.3755)" class="st0 st15 st6">n</text>
<text transform="matrix(1 0 0 1 298.9165 475.3755)" class="st0 st15">an</text>
<text transform="matrix(1 0 0 1 309.6783 475.3755)" class="st0 st15 st6">y</text>
<text transform="matrix(1 0 0 1 320.439 475.3755)" class="st0 st15">tw</text>
<text transform="matrix(1 0 0 1 331.2007 475.3755)" class="st0 st15 st6">o</text>
<text transform="matrix(1 0 0 1 341.9605 475.3755)" class="st0 st15">page</text>
<text transform="matrix(1 0 0 1 363.4839 475.3755)" class="st0 st15 st6">s</text>
<text transform="matrix(1 0 0 1 374.2447 475.3755)" class="st0 st15">whil</text>
<text transform="matrix(1 0 0 1 395.7671 475.3755)" class="st0 st15 st6">e</text>
<text transform="matrix(1 0 0 1 406.5279 475.3755)" class="st0 st15">preservin</text>
<text transform="matrix(1 0 0 1 454.9536 475.3755)" class="st0 st15 st6">g</text>
<text transform="matrix(1 0 0 1 465.7144 475.3755)" class="st0 st15">URLs.</text>
<text transform="matrix(1 0 0 1 23.3276 486.3345)" class="st0 st15 st12">•</text>
<text transform="matrix(1 0 0 1 40.6606 486.3345)" class="st0 st15">Develope</text>
<text transform="matrix(1 0 0 1 83.706 486.3345)" class="st0 st15 st6">d</text>
<text transform="matrix(1 0 0 1 94.4668 486.3345)" class="st0 st15">abstractio</text>
<text transform="matrix(1 0 0 1 148.2739 486.3345)" class="st0 st15 st6">n</text>
<text transform="matrix(1 0 0 1 159.0341 486.3345)" class="st0 st15">layer</text>
<line class="st16" x1="94.5" y1="489" x2="185.9" y2="489"/>
<text transform="matrix(1 0 0 1 191.2979 486.3345)" class="st0 st15">t</text>
<text transform="matrix(1 0 0 1 196.6788 486.3345)" class="st0 st15 st6">o</text>
<text transform="matrix(1 0 0 1 207.439 486.3345)" class="st0 st15">defin</text>
<text transform="matrix(1 0 0 1 234.3428 486.3345)" class="st0 st15 st6">e</text>
<text transform="matrix(1 0 0 1 245.1031 486.3345)" class="st0 st15">safe</text>
<text transform="matrix(1 0 0 1 266.626 486.3345)" class="st0 st15 st6">,</text>
<text transform="matrix(1 0 0 1 277.3868 486.3345)" class="st0 st15">aestheticall</text>
<text transform="matrix(1 0 0 1 341.9546 486.3345)" class="st0 st15 st6">y</text>
<text transform="matrix(1 0 0 1 352.7154 486.3345)" class="st0 st15">pleasing</text>
<text transform="matrix(1 0 0 1 395.7613 486.3345)" class="st0 st15 st6">,</text>
<text transform="matrix(1 0 0 1 406.522 486.3345)" class="st0 st15">webpage</text>
<text transform="matrix(1 0 0 1 444.1871 486.3345)" class="st0 st15 st6">s</text>
<text transform="matrix(1 0 0 1 454.9478 486.3345)" class="st0 st15">wit</text>
<text transform="matrix(1 0 0 1 471.0894 486.3345)" class="st0 st15 st6">h</text>
<text transform="matrix(1 0 0 1 481.8501 486.3345)" class="st0 st15">JSON</text>
<line class="st16" x1="481.8" y1="487.8" x2="503.3" y2="487.8"/>
<text transform="matrix(1 0 0 1 503.3276 486.3345)" class="st0 st15">.</text>
<text transform="matrix(1 0 0 1 17.3506 496.353)" class="st0 st15">Cod</text>
<text transform="matrix(1 0 0 1 33.4927 496.353)" class="st0 st15 st6">e</text>
<text transform="matrix(1 0 0 1 44.2534 496.353)" class="st0 st15">Repository:</text>
<line class="st16" x1="17.4" y1="499.1" x2="103.4" y2="499.1"/>
<text transform="matrix(1 0 0 1 108.8066 496.353)" class="st4 st0 st15">github.com/AjjMarx/Personal-Site</text>
<text transform="matrix(1 0 0 1 17.3506 514.2856)" class="st9 st5">3Blue1Brow</text>
<text transform="matrix(1 0 0 1 77.1358 514.2856)" class="st9 st5 st6">n</text>
<text transform="matrix(1 0 0 1 89.0918 514.2856)" class="st9 st5">Summe</text>
<text transform="matrix(1 0 0 1 118.9849 514.2856)" class="st9 st5 st6">r</text>
<text transform="matrix(1 0 0 1 130.9409 514.2856)" class="st9 st5">o</text>
<text transform="matrix(1 0 0 1 136.9194 514.2856)" class="st9 st5 st6">f</text>
<text transform="matrix(1 0 0 1 148.8755 514.2856)" class="st9 st5">Mat</text>
<text transform="matrix(1 0 0 1 166.811 514.2856)" class="st9 st5 st6">h</text>
<text transform="matrix(1 0 0 1 178.7671 514.2856)" class="st9 st5">Expositio</text>
<text transform="matrix(1 0 0 1 232.5737 514.2856)" class="st9 st5 st6">n</text>
<text transform="matrix(1 0 0 1 244.5298 514.2856)" class="st9 st5">#2</text>
<text transform="matrix(1 0 0 1 256.4868 514.2856)" class="st9 st5 st12">:</text>
<text transform="matrix(1 0 0 1 274.4204 514.2856)" class="st9 st5">Mat</text>
<text transform="matrix(1 0 0 1 292.356 514.2856)" class="st9 st5 st6">h</text>
<text transform="matrix(1 0 0 1 304.312 514.2856)" class="st9 st5">Explaine</text>
<text transform="matrix(1 0 0 1 352.1402 514.2856)" class="st9 st5 st6">r</text>
<text transform="matrix(1 0 0 1 364.0962 514.2856)" class="st9 st5">Competitio</text>
<text transform="matrix(1 0 0 1 423.8814 514.2856)" class="st9 st5 st6">n</text>
<text transform="matrix(1 0 0 1 435.8374 514.2856)" class="st9 st5">(SoME2):</text>
<text transform="matrix(1 0 0 1 23.3276 524.3022)" class="st0 st15 st12">•</text>
<text transform="matrix(1 0 0 1 40.6606 524.3022)" class="st0 st15">Wrote</text>
<text transform="matrix(1 0 0 1 67.5639 524.3022)" class="st0 st15 st6">,</text>
<text transform="matrix(1 0 0 1 78.3247 524.3022)" class="st0 st15">voiced</text>
<text transform="matrix(1 0 0 1 110.6088 524.3022)" class="st0 st15 st6">,</text>
<text transform="matrix(1 0 0 1 121.3696 524.3022)" class="st0 st15">an</text>
<text transform="matrix(1 0 0 1 132.1308 524.3022)" class="st0 st15 st6">d</text>
<text transform="matrix(1 0 0 1 142.8916 524.3022)" class="st0 st15">animate</text>
<text transform="matrix(1 0 0 1 180.5561 524.3022)" class="st0 st15 st6">d</text>
<text transform="matrix(1 0 0 1 191.3169 524.3022)" class="st0 st15">25-minut</text>
<text transform="matrix(1 0 0 1 234.3623 524.3022)" class="st0 st15 st6">e</text>
<text transform="matrix(1 0 0 1 245.123 524.3022)" class="st0 st15">3</text>
<text transform="matrix(1 0 0 1 250.5039 524.3022)" class="st0 st15 st6">D</text>
<text transform="matrix(1 0 0 1 261.2641 524.3022)" class="st0 st15">animate</text>
<text transform="matrix(1 0 0 1 298.9292 524.3022)" class="st0 st15 st6">d</text>
<text transform="matrix(1 0 0 1 309.6899 524.3022)" class="st0 st15">video</text>
<line class="st16" x1="261.2" y1="525.8" x2="336.6" y2="525.8"/>
<text transform="matrix(1 0 0 1 341.9331 524.3022)" class="st0 st15">i</text>
<text transform="matrix(1 0 0 1 347.314 524.3022)" class="st0 st15 st6">n</text>
<text transform="matrix(1 0 0 1 358.0747 524.3022)" class="st0 st15">Blender</text>
<line class="st16" x1="358.1" y1="525.8" x2="395.7" y2="525.8"/>
<text transform="matrix(1 0 0 1 401.1108 524.3022)" class="st0 st15">explaining</text>
<text transform="matrix(1 0 0 1 40.6626 535.2612)" class="st0 st15">intuitiv</text>
<text transform="matrix(1 0 0 1 83.7085 535.2612)" class="st0 st15 st6">e</text>
<text transform="matrix(1 0 0 1 94.4688 535.2612)" class="st0 st15">geometric</text>
<line class="st16" x1="94.5" y1="538" x2="142.9" y2="538"/>
<text transform="matrix(1 0 0 1 148.2598 535.2612)" class="st0 st15">principle</text>
<text transform="matrix(1 0 0 1 196.6861 535.2612)" class="st0 st15 st6">s</text>
<text transform="matrix(1 0 0 1 207.4468 535.2612)" class="st0 st15">behin</text>
<text transform="matrix(1 0 0 1 234.3501 535.2612)" class="st0 st15 st6">d</text>
<text transform="matrix(1 0 0 1 245.1109 535.2612)" class="st0 st15">Vorono</text>
<text transform="matrix(1 0 0 1 277.3951 535.2612)" class="st0 st15 st6">i</text>
<text transform="matrix(1 0 0 1 288.1558 535.2612)" class="st0 st15">Diagram</text>
<text transform="matrix(1 0 0 1 325.8208 535.2612)" class="st0 st15 st6">s</text>
<text transform="matrix(1 0 0 1 336.5806 535.2612)" class="st0 st15">an</text>
<text transform="matrix(1 0 0 1 347.3423 535.2612)" class="st0 st15 st6">d</text>
<text transform="matrix(1 0 0 1 358.1031 535.2612)" class="st0 st15">Fortune’</text>
<text transform="matrix(1 0 0 1 401.149 535.2612)" class="st0 st15 st6">s</text>
<text transform="matrix(1 0 0 1 411.9097 535.2612)" class="st0 st15">Algorithm.</text>
<text transform="matrix(1 0 0 1 23.3276 546.2202)" class="st0 st15 st12">•</text>
<text transform="matrix(1 0 0 1 40.6606 546.2202)" class="st0 st15">Programme</text>
<text transform="matrix(1 0 0 1 89.0869 546.2202)" class="st0 st15 st6">d</text>
<text transform="matrix(1 0 0 1 99.8476 546.2202)" class="st0 st15">automated</text>
<line class="st16" x1="99.8" y1="547.7" x2="148.3" y2="547.7"/>
<text transform="matrix(1 0 0 1 153.6387 546.2202)" class="st0 st15">processe</text>
<text transform="matrix(1 0 0 1 196.6841 546.2202)" class="st0 st15 st6">s</text>
<text transform="matrix(1 0 0 1 207.4449 546.2202)" class="st0 st15">fo</text>
<text transform="matrix(1 0 0 1 218.2061 546.2202)" class="st0 st15 st6">r</text>
<text transform="matrix(1 0 0 1 228.9668 546.2202)" class="st0 st15">renderin</text>
<text transform="matrix(1 0 0 1 272.0127 546.2202)" class="st0 st15 st6">g</text>
<text transform="matrix(1 0 0 1 282.773 546.2202)" class="st0 st15">comple</text>
<text transform="matrix(1 0 0 1 315.0572 546.2202)" class="st0 st15 st6">x</text>
<text transform="matrix(1 0 0 1 325.8179 546.2202)" class="st0 st15">concept</text>
<text transform="matrix(1 0 0 1 363.4829 546.2202)" class="st0 st15 st6">s</text>
<text transform="matrix(1 0 0 1 374.2437 546.2202)" class="st0 st15">wit</text>
<text transform="matrix(1 0 0 1 390.3853 546.2202)" class="st0 st15 st6">h</text>
<text transform="matrix(1 0 0 1 401.146 546.2202)" class="st0 st15">then-new</text>
<line class="st16" x1="401.1" y1="547.7" x2="444.1" y2="547.7"/>
<text transform="matrix(1 0 0 1 449.5288 546.2202)" class="st0 st15">Geometr</text>
<text transform="matrix(1 0 0 1 487.1938 546.2202)" class="st0 st15 st6">y</text>
<text transform="matrix(1 0 0 1 497.9546 546.2202)" class="st0 st15">Nodes</text>
<line class="st16" x1="449.5" y1="548.9" x2="524.8" y2="548.9"/>
<text transform="matrix(1 0 0 1 524.8472 546.2202)" class="st0 st15">.</text>
<text transform="matrix(1 0 0 1 23.3276 557.1792)" class="st0 st15 st12">•</text>
<text transform="matrix(1 0 0 1 40.6606 557.1792)" class="st0 st15">Achieved</text>
<text transform="matrix(1 0 0 1 89.0791 557.1792)" class="st23 st15">&gt;</text>
<text transform="matrix(1 0 0 1 96.2466 557.1792)" class="st0 st15">11,00</text>
<text transform="matrix(1 0 0 1 123.1499 557.1792)" class="st0 st15 st6">0</text>
<text transform="matrix(1 0 0 1 133.9107 557.1792)" class="st0 st15">View</text>
<text transform="matrix(1 0 0 1 155.4336 557.1792)" class="st0 st15 st6">s</text>
<text transform="matrix(1 0 0 1 166.1939 557.1792)" class="st0 st15">an</text>
<text transform="matrix(1 0 0 1 176.9556 557.1792)" class="st0 st15 st6">d</text>
<text transform="matrix(1 0 0 1 187.7158 557.1792)" class="st0 st15">ove</text>
<text transform="matrix(1 0 0 1 203.8579 557.1792)" class="st0 st15 st6">r</text>
<text transform="matrix(1 0 0 1 214.6187 557.1792)" class="st0 st15">60</text>
<text transform="matrix(1 0 0 1 225.3799 557.1792)" class="st0 st15 st6">0</text>
<text transform="matrix(1 0 0 1 236.1406 557.1792)" class="st0 st15">likes</text>
<text transform="matrix(1 0 0 1 263.044 557.1792)" class="st0 st15 st24">,</text>
<text transform="matrix(1 0 0 1 295.3237 557.1792)" class="st0 st15">YouTube</text>
<line class="st16" x1="295.3" y1="558.6" x2="333" y2="558.6"/>
<text transform="matrix(1 0 0 1 332.9604 557.1792)" class="st0 st15">:</text>
<text transform="matrix(1 0 0 1 349.1001 557.1792)" class="st4 st0 st15">https://youtu.be/L_joQb12QSE</text>
<text transform="matrix(1 0 0 1 17.3506 575.0776)" class="st9 st5">3-Dimensiona</text>
<text transform="matrix(1 0 0 1 89.0928 575.0776)" class="st9 st5 st6">l</text>
<text transform="matrix(1 0 0 1 101.0488 575.0776)" class="st9 st5">Polyhedra</text>
<text transform="matrix(1 0 0 1 154.856 575.0776)" class="st9 st5 st6">l&amp;</text>
<text transform="matrix(1 0 0 1 178.7681 575.0776)" class="st9 st5">Developabl</text>
<text transform="matrix(1 0 0 1 238.5532 575.0776)" class="st9 st5 st6">e</text>
<text transform="matrix(1 0 0 1 250.5093 575.0776)" class="st9 st5">Surfac</text>
<text transform="matrix(1 0 0 1 286.3804 575.0776)" class="st9 st5 st6">e</text>
<text transform="matrix(1 0 0 1 298.3364 575.0776)" class="st9 st5">Pape</text>
<text transform="matrix(1 0 0 1 322.2505 575.0776)" class="st9 st5 st6">r</text>
<text transform="matrix(1 0 0 1 334.2066 575.0776)" class="st9 st5">Ar</text>
<text transform="matrix(1 0 0 1 346.1636 575.0776)" class="st9 st5 st6">t</text>
<text transform="matrix(1 0 0 1 358.1196 575.0776)" class="st9 st5">(Published):</text>
<text transform="matrix(1 0 0 1 23.3276 585.0942)" class="st0 st15 st12">•</text>
<text transform="matrix(1 0 0 1 40.6606 585.0942)" class="st0 st15">Designe</text>
<text transform="matrix(1 0 0 1 78.3256 585.0942)" class="st0 st15 st6">d</text>
<text transform="matrix(1 0 0 1 89.0859 585.0942)" class="st0 st15">an</text>
<text transform="matrix(1 0 0 1 99.8476 585.0942)" class="st0 st15 st6">d</text>
<text transform="matrix(1 0 0 1 110.6079 585.0942)" class="st0 st15">translate</text>
<text transform="matrix(1 0 0 1 159.0341 585.0942)" class="st0 st15 st6">d</text>
<text transform="matrix(1 0 0 1 169.7949 585.0942)" class="st0 st15">numerou</text>
<text transform="matrix(1 0 0 1 207.4599 585.0942)" class="st0 st15 st6">s</text>
<text transform="matrix(1 0 0 1 218.2202 585.0942)" class="st0 st15">3</text>
<text transform="matrix(1 0 0 1 223.601 585.0942)" class="st0 st15 st6">D</text>
<text transform="matrix(1 0 0 1 234.3618 585.0942)" class="st0 st15">models</text>
<line class="st16" x1="218.2" y1="586.6" x2="266.6" y2="586.6"/>
<text transform="matrix(1 0 0 1 271.9946 585.0942)" class="st0 st15">int</text>
<text transform="matrix(1 0 0 1 288.1372 585.0942)" class="st0 st15 st6">o</text>
<text transform="matrix(1 0 0 1 298.8969 585.0942)" class="st0 st15">respectiv</text>
<text transform="matrix(1 0 0 1 347.3237 585.0942)" class="st0 st15 st6">e</text>
<text transform="matrix(1 0 0 1 358.0844 585.0942)" class="st0 st15">fla</text>
<text transform="matrix(1 0 0 1 374.226 585.0942)" class="st0 st15 st6">t</text>
<text transform="matrix(1 0 0 1 384.9868 585.0942)" class="st0 st15">2</text>
<text transform="matrix(1 0 0 1 390.3676 585.0942)" class="st0 st15 st6">D</text>
<text transform="matrix(1 0 0 1 401.1284 585.0942)" class="st0 st15">un-foldings</text>
<line class="st16" x1="385" y1="587.8" x2="460.3" y2="587.8"/>
<text transform="matrix(1 0 0 1 40.6626 596.0532)" class="st0 st15">t</text>
<text transform="matrix(1 0 0 1 46.0435 596.0532)" class="st0 st15 st6">o</text>
<text transform="matrix(1 0 0 1 56.8037 596.0532)" class="st0 st15">fi</text>
<text transform="matrix(1 0 0 1 67.5654 596.0532)" class="st0 st15 st6">t</text>
<text transform="matrix(1 0 0 1 78.3257 596.0532)" class="st0 st15">withi</text>
<text transform="matrix(1 0 0 1 105.2295 596.0532)" class="st0 st15 st6">n</text>
<text transform="matrix(1 0 0 1 115.9897 596.0532)" class="st0 st15">hardwar</text>
<text transform="matrix(1 0 0 1 153.6548 596.0532)" class="st0 st15 st6">e</text>
<text transform="matrix(1 0 0 1 164.4155 596.0532)" class="st0 st15">constraints</text>
<line class="st16" x1="116" y1="597.5" x2="223.6" y2="597.5"/>
<text transform="matrix(1 0 0 1 228.9565 596.0532)" class="st0 st15">an</text>
<text transform="matrix(1 0 0 1 239.7177 596.0532)" class="st0 st15 st6">d</text>
<text transform="matrix(1 0 0 1 250.4785 596.0532)" class="st0 st15">b</text>
<text transform="matrix(1 0 0 1 255.8593 596.0532)" class="st0 st15 st6">e</text>
<text transform="matrix(1 0 0 1 266.6196 596.0532)" class="st0 st15">easil</text>
<text transform="matrix(1 0 0 1 293.5229 596.0532)" class="st0 st15 st6">y</text>
<text transform="matrix(1 0 0 1 304.2836 596.0532)" class="st0 st15">re-folde</text>
<text transform="matrix(1 0 0 1 347.3295 596.0532)" class="st0 st15 st6">d</text>
<text transform="matrix(1 0 0 1 358.0903 596.0532)" class="st0 st15">int</text>
<text transform="matrix(1 0 0 1 374.2319 596.0532)" class="st0 st15 st6">o</text>
<text transform="matrix(1 0 0 1 384.9926 596.0532)" class="st0 st15">origina</text>
<text transform="matrix(1 0 0 1 422.6577 596.0532)" class="st0 st15 st6">l</text>
<text transform="matrix(1 0 0 1 433.4184 596.0532)" class="st0 st15">designs.</text>
<text transform="matrix(1 0 0 1 23.3276 607.0122)" class="st0 st15 st12">•</text>
<text transform="matrix(1 0 0 1 40.6606 607.0122)" class="st0 st15">See</text>
<text transform="matrix(1 0 0 1 56.8027 607.0122)" class="st0 st15 st6">n</text>
<text transform="matrix(1 0 0 1 67.563 607.0122)" class="st0 st15">b</text>
<text transform="matrix(1 0 0 1 72.9438 607.0122)" class="st0 st15 st6">y</text>
<text transform="matrix(1 0 0 1 83.7046 607.0122)" class="st0 st15">ove</text>
<text transform="matrix(1 0 0 1 99.8466 607.0122)" class="st0 st15 st6">r</text>
<text transform="matrix(1 0 0 1 110.6069 607.0122)" class="st0 st15">240,000</text>
<line class="st16" x1="110.6" y1="609.3" x2="148.3" y2="609.3"/>
<text transform="matrix(1 0 0 1 153.6387 607.0122)" class="st0 st15">users</text>
<text transform="matrix(1 0 0 1 180.542 607.0122)" class="st0 st15 st6">,</text>
<text transform="matrix(1 0 0 1 191.3028 607.0122)" class="st0 st15">Generate</text>
<text transform="matrix(1 0 0 1 234.3487 607.0122)" class="st0 st15 st6">d</text>
<text transform="matrix(1 0 0 1 245.1089 607.0122)" class="st0 st15">ove</text>
<text transform="matrix(1 0 0 1 261.251 607.0122)" class="st0 st15 st6">r</text>
<text transform="matrix(1 0 0 1 272.0117 607.0122)" class="st0 st15">$11,000</text>
<line class="st16" x1="272" y1="609.5" x2="309.7" y2="609.5"/>
<text transform="matrix(1 0 0 1 315.0337 607.0122)" class="st0 st15">i</text>
<text transform="matrix(1 0 0 1 320.4146 607.0122)" class="st0 st15 st6">n</text>
<text transform="matrix(1 0 0 1 331.1753 607.0122)" class="st0 st15">a</text>
<text transform="matrix(1 0 0 1 336.5552 607.0122)" class="st0 st15 st6">d</text>
<text transform="matrix(1 0 0 1 347.3159 607.0122)" class="st0 st15">revenue.</text>
<line class="st8" x1="68.8" y1="616.5" x2="449.8" y2="616.5"/>
<text transform="matrix(1 0 0 1 3.0039 626.6382)" class="st9 st10">Skills:</text>
<text transform="matrix(1 0 0 1 50.2266 639.1792)" class="st9 st15">Programming</text>
<text transform="matrix(1 0 0 1 109.4058 639.1792)" class="st0 st15 st12">:</text>
<text transform="matrix(1 0 0 1 126.7388 639.1792)" class="st0 st15">C+</text>
<text transform="matrix(1 0 0 1 137.5 639.1792)" class="st0 st15 st6">+|</text>
<text transform="matrix(1 0 0 1 159.021 639.1792)" class="st0 st15">JavaScrip</text>
<text transform="matrix(1 0 0 1 207.4478 639.1792)" class="st0 st15 st6">t|</text>
<text transform="matrix(1 0 0 1 228.9688 639.1792)" class="st0 st15">Lu</text>
<text transform="matrix(1 0 0 1 239.73 639.1792)" class="st0 st15 st6">a|</text>
<text transform="matrix(1 0 0 1 261.251 639.1792)" class="st0 st15">Pytho</text>
<text transform="matrix(1 0 0 1 288.1548 639.1792)" class="st0 st15 st6">n|</text>
<text transform="matrix(1 0 0 1 309.6753 639.1792)" class="st0 st15">HTML/CS</text>
<text transform="matrix(1 0 0 1 347.3404 639.1792)" class="st0 st15 st6">S|</text>
<text transform="matrix(1 0 0 1 368.8619 639.1792)" class="st0 st15">WebG</text>
<text transform="matrix(1 0 0 1 390.3843 639.1792)" class="st0 st15 st6">L|</text>
<text transform="matrix(1 0 0 1 411.9058 639.1792)" class="st0 st15">GLS</text>
<text transform="matrix(1 0 0 1 428.0484 639.1792)" class="st0 st15 st6">L|</text>
<text transform="matrix(1 0 0 1 449.5689 639.1792)" class="st0 st15">Uni</text>
<text transform="matrix(1 0 0 1 465.7115 639.1792)" class="st0 st15 st6">x</text>
<text transform="matrix(1 0 0 1 476.4712 639.1792)" class="st0 st15">Comman</text>
<text transform="matrix(1 0 0 1 508.7554 639.1792)" class="st0 st15 st6">d</text>
<text transform="matrix(1 0 0 1 519.5162 639.1792)" class="st0 st15">Line</text>
<text transform="matrix(1 0 0 1 23.3276 650.1382)" class="st9 st15">Compute</text>
<text transform="matrix(1 0 0 1 60.9926 650.1382)" class="st9 st15 st6">r</text>
<text transform="matrix(1 0 0 1 71.7529 650.1382)" class="st9 st15">Science</text>
<text transform="matrix(1 0 0 1 109.4062 650.1382)" class="st0 st15 st12">:</text>
<text transform="matrix(1 0 0 1 126.7392 650.1382)" class="st0 st15">Algorithm</text>
<text transform="matrix(1 0 0 1 175.1655 650.1382)" class="st0 st15 st6">s|</text>
<text transform="matrix(1 0 0 1 196.6865 650.1382)" class="st0 st15">Dat</text>
<text transform="matrix(1 0 0 1 212.8286 650.1382)" class="st0 st15 st6">a</text>
<text transform="matrix(1 0 0 1 223.5893 650.1382)" class="st0 st15">structure</text>
<text transform="matrix(1 0 0 1 272.0156 650.1382)" class="st0 st15 st6">s|</text>
<text transform="matrix(1 0 0 1 293.5366 650.1382)" class="st0 st15">Graphic</text>
<text transform="matrix(1 0 0 1 331.2016 650.1382)" class="st0 st15 st6">s|</text>
<text transform="matrix(1 0 0 1 352.7231 650.1382)" class="st0 st15">Uni</text>
<text transform="matrix(1 0 0 1 368.8647 650.1382)" class="st0 st15 st6">t&amp;</text>
<text transform="matrix(1 0 0 1 390.3862 650.1382)" class="st0 st15">Integratio</text>
<text transform="matrix(1 0 0 1 444.1928 650.1382)" class="st0 st15 st6">n</text>
<text transform="matrix(1 0 0 1 454.9536 650.1382)" class="st0 st15">testing</text>
<text transform="matrix(1 0 0 1 44.8467 661.0972)" class="st9 st15">Applie</text>
<text transform="matrix(1 0 0 1 77.1309 661.0972)" class="st9 st15 st6">d</text>
<text transform="matrix(1 0 0 1 87.8916 661.0972)" class="st9 st15">Math</text>
<text transform="matrix(1 0 0 1 109.4053 661.0972)" class="st0 st15 st12">:</text>
<text transform="matrix(1 0 0 1 126.7383 661.0972)" class="st0 st15">Linea</text>
<text transform="matrix(1 0 0 1 153.6416 661.0972)" class="st0 st15 st6">r</text>
<text transform="matrix(1 0 0 1 164.4024 661.0972)" class="st0 st15">Algebr</text>
<text transform="matrix(1 0 0 1 196.6865 661.0972)" class="st0 st15 st6">a|</text>
<text transform="matrix(1 0 0 1 218.2075 661.0972)" class="st0 st15">Differentia</text>
<text transform="matrix(1 0 0 1 277.3955 661.0972)" class="st0 st15 st6">l</text>
<text transform="matrix(1 0 0 1 288.1558 661.0972)" class="st0 st15">Equation</text>
<text transform="matrix(1 0 0 1 331.2017 661.0972)" class="st0 st15 st6">s|</text>
<text transform="matrix(1 0 0 1 352.7232 661.0972)" class="st0 st15">Discret</text>
<text transform="matrix(1 0 0 1 390.3872 661.0972)" class="st0 st15 st6">e</text>
<text transform="matrix(1 0 0 1 401.148 661.0972)" class="st0 st15">Mat</text>
<text transform="matrix(1 0 0 1 417.2906 661.0972)" class="st0 st15 st6">h|</text>
<text transform="matrix(1 0 0 1 438.8111 661.0972)" class="st0 st15">Numerica</text>
<text transform="matrix(1 0 0 1 481.857 661.0972)" class="st0 st15 st6">l</text>
<text transform="matrix(1 0 0 1 492.6177 661.0972)" class="st0 st15">methods</text>
<text transform="matrix(1 0 0 1 60.9868 672.0562)" class="st9 st15">Pur</text>
<text transform="matrix(1 0 0 1 77.1289 672.0562)" class="st9 st15 st6">e</text>
<text transform="matrix(1 0 0 1 87.8896 672.0562)" class="st9 st15">Math</text>
<text transform="matrix(1 0 0 1 109.4058 672.0562)" class="st0 st15 st12">:</text>
<text transform="matrix(1 0 0 1 126.7388 672.0562)" class="st0 st15">Rea</text>
<text transform="matrix(1 0 0 1 142.8809 672.0562)" class="st0 st15 st6">l</text>
<text transform="matrix(1 0 0 1 153.6412 672.0562)" class="st0 st15">analysi</text>
<text transform="matrix(1 0 0 1 191.3062 672.0562)" class="st0 st15 st6">s|</text>
<text transform="matrix(1 0 0 1 212.8277 672.0562)" class="st0 st15">Abstrac</text>
<text transform="matrix(1 0 0 1 250.4922 672.0562)" class="st0 st15 st6">t</text>
<text transform="matrix(1 0 0 1 261.253 672.0562)" class="st0 st15">Algebr</text>
<text transform="matrix(1 0 0 1 293.5376 672.0562)" class="st0 st15 st6">a|</text>
<text transform="matrix(1 0 0 1 315.0581 672.0562)" class="st0 st15">Dynamic</text>
<text transform="matrix(1 0 0 1 352.7232 672.0562)" class="st0 st15 st6">s&amp;</text>
<text transform="matrix(1 0 0 1 374.2447 672.0562)" class="st0 st15">Recursio</text>
<text transform="matrix(1 0 0 1 417.2896 672.0562)" class="st0 st15 st6">n|</text>
<text transform="matrix(1 0 0 1 438.8111 672.0562)" class="st0 st15">Mathematica</text>
<text transform="matrix(1 0 0 1 497.9986 672.0562)" class="st0 st15 st6">l</text>
<text transform="matrix(1 0 0 1 508.7593 672.0562)" class="st0 st15">Origami</text>
<text transform="matrix(1 0 0 1 34.0879 683.0151)" class="st9 st15">Huma</text>
<text transform="matrix(1 0 0 1 55.6108 683.0151)" class="st9 st15 st6">n</text>
<text transform="matrix(1 0 0 1 66.3711 683.0151)" class="st9 st15">Language</text>
<text transform="matrix(1 0 0 1 109.4062 683.0151)" class="st0 st15 st12">:</text>
<text transform="matrix(1 0 0 1 126.7392 683.0151)" class="st0 st15">Mandari</text>
<text transform="matrix(1 0 0 1 164.4042 683.0151)" class="st0 st15 st6">n</text>
<text transform="matrix(1 0 0 1 175.1645 683.0151)" class="st0 st15">Chines</text>
<text transform="matrix(1 0 0 1 207.4487 683.0151)" class="st0 st15 st6">e</text>
<text transform="matrix(1 0 0 1 218.2094 683.0151)" class="st0 st15">(Simplified</text>
<text transform="matrix(1 0 0 1 277.3969 683.0151)" class="st0 st15 st6">)</text>
<text transform="matrix(1 0 0 1 288.1577 683.0151)" class="st0 st15">(HS</text>
<text transform="matrix(1 0 0 1 304.3002 683.0151)" class="st0 st15 st6">K4</text>
<text transform="matrix(1 0 0 1 325.8208 683.0151)" class="st0 st15">equivalent</text>
<text transform="matrix(1 0 0 1 379.6284 683.0151)" class="st0 st15 st6">)</text>
<text transform="matrix(1 0 0 1 390.3881 683.0151)" class="st0 st15">(B1</text>
<text transform="matrix(1 0 0 1 406.5307 683.0151)" class="st0 st15 st6">,</text>
<text transform="matrix(1 0 0 1 417.2915 683.0151)" class="st0 st15">Basi</text>
<text transform="matrix(1 0 0 1 438.8139 683.0151)" class="st0 st15 st6">c</text>
<text transform="matrix(1 0 0 1 449.5747 683.0151)" class="st0 st15">Fluency)</text>
<text transform="matrix(1 0 0 1 34.0879 693.9741)" class="st9 st15">Dev</text>
<text transform="matrix(1 0 0 1 50.23 693.9741)" class="st9 st15 st21">.</text>
<text transform="matrix(1 0 0 1 66.3706 693.9741)" class="st9 st15">Software</text>
<text transform="matrix(1 0 0 1 109.4062 693.9741)" class="st0 st15 st12">:</text>
<text transform="matrix(1 0 0 1 126.7392 693.9741)" class="st0 st15">GitHu</text>
<text transform="matrix(1 0 0 1 153.6425 693.9741)" class="st0 st15 st6">b|</text>
<text transform="matrix(1 0 0 1 175.1635 693.9741)" class="st0 st15">Bas</text>
<text transform="matrix(1 0 0 1 191.3061 693.9741)" class="st0 st15 st6">h|</text>
<text transform="matrix(1 0 0 1 212.8271 693.9741)" class="st0 st15">Zs</text>
<text transform="matrix(1 0 0 1 223.5883 693.9741)" class="st0 st15 st6">h|</text>
<text transform="matrix(1 0 0 1 245.1093 693.9741)" class="st0 st15">Vi</text>
<text transform="matrix(1 0 0 1 255.871 693.9741)" class="st0 st15 st6">m|</text>
<text transform="matrix(1 0 0 1 277.392 693.9741)" class="st0 st15">Valgrin</text>
<text transform="matrix(1 0 0 1 315.0571 693.9741)" class="st0 st15 st6">d|</text>
<text transform="matrix(1 0 0 1 336.5776 693.9741)" class="st0 st15">Secur</text>
<text transform="matrix(1 0 0 1 363.4819 693.9741)" class="st0 st15 st6">e</text>
<text transform="matrix(1 0 0 1 374.2416 693.9741)" class="st0 st15">Shel</text>
<text transform="matrix(1 0 0 1 395.7651 693.9741)" class="st0 st15 st6">l</text>
<text transform="matrix(1 0 0 1 406.5258 693.9741)" class="st0 st15">(SSH</text>
<text transform="matrix(1 0 0 1 428.0483 693.9741)" class="st0 st15 st6">)</text>
<text transform="matrix(1 0 0 1 438.809 693.9741)" class="st0 st15">|</text>
<text transform="matrix(1 0 0 1 449.5308 693.9741)" class="st25 st15">L</text>
<text transform="matrix(1 0 0 1 451.9702 691.8589)" class="st25 st26">A</text>
<text transform="matrix(1 0 0 1 455.9448 693.9741)" class="st25 st15">T</text>
<text transform="matrix(1 0 0 1 461.063 695.9048)" class="st25 st15">E</text>
<text transform="matrix(1 0 0 1 466.1812 693.9741)" class="st25 st15">X</text>
<text transform="matrix(1 0 0 1 478.4692 693.9741)" class="st0 st15">(LaTeX)</text>
<text transform="matrix(1 0 0 1 34.0879 704.9331)" class="st9 st15">Othe</text>
<text transform="matrix(1 0 0 1 55.6108 704.9331)" class="st9 st15 st6">r</text>
<text transform="matrix(1 0 0 1 66.3711 704.9331)" class="st9 st15">Software</text>
<text transform="matrix(1 0 0 1 109.4062 704.9331)" class="st0 st15 st12">:</text>
<text transform="matrix(1 0 0 1 126.7392 704.9331)" class="st0 st15">Blende</text>
<text transform="matrix(1 0 0 1 159.0234 704.9331)" class="st0 st15 st6">r|</text>
<text transform="matrix(1 0 0 1 180.5444 704.9331)" class="st0 st15">Fusio</text>
<text transform="matrix(1 0 0 1 207.4482 704.9331)" class="st0 st15 st6">n</text>
<text transform="matrix(1 0 0 1 218.2084 704.9331)" class="st0 st15">36</text>
<text transform="matrix(1 0 0 1 228.9702 704.9331)" class="st0 st15 st6">0|</text>
<text transform="matrix(1 0 0 1 250.4912 704.9331)" class="st0 st15">ArcGI</text>
<text transform="matrix(1 0 0 1 277.3945 704.9331)" class="st0 st15 st6">S|</text>
<text transform="matrix(1 0 0 1 298.9155 704.9331)" class="st0 st15">Adob</text>
<text transform="matrix(1 0 0 1 320.4389 704.9331)" class="st0 st15 st6">e</text>
<text transform="matrix(1 0 0 1 331.1987 704.9331)" class="st0 st15">Suit</text>
<text transform="matrix(1 0 0 1 352.7221 704.9331)" class="st0 st15 st6">e|</text>
<text transform="matrix(1 0 0 1 374.2426 704.9331)" class="st0 st15">Offic</text>
<text transform="matrix(1 0 0 1 401.1469 704.9331)" class="st0 st15 st6">e</text>
<text transform="matrix(1 0 0 1 411.9067 704.9331)" class="st0 st15">Suit</text>
<text transform="matrix(1 0 0 1 433.4301 704.9331)" class="st0 st15 st6">e|</text>
<text transform="matrix(1 0 0 1 454.9506 704.9331)" class="st0 st15">Googl</text>
<text transform="matrix(1 0 0 1 481.8549 704.9331)" class="st0 st15 st6">e</text>
<text transform="matrix(1 0 0 1 492.6147 704.9331)" class="st0 st15">Suite</text>
<text transform="matrix(1 0 0 1 34.0879 715.8931)" class="st9 st15">Digita</text>
<text transform="matrix(1 0 0 1 66.3721 715.8931)" class="st9 st15 st6">l</text>
<text transform="matrix(1 0 0 1 77.1328 715.8931)" class="st9 st15">Design:</text>
<text transform="matrix(1 0 0 1 126.7383 715.8931)" class="st0 st15">Vecto</text>
<text transform="matrix(1 0 0 1 153.6416 715.8931)" class="st0 st15 st6">r</text>
<text transform="matrix(1 0 0 1 164.4024 715.8931)" class="st0 st15">Graphic</text>
<text transform="matrix(1 0 0 1 202.0674 715.8931)" class="st0 st15 st6">s|</text>
<text transform="matrix(1 0 0 1 223.5884 715.8931)" class="st0 st15">Fragmen</text>
<text transform="matrix(1 0 0 1 261.2534 715.8931)" class="st0 st15 st6">t</text>
<text transform="matrix(1 0 0 1 272.0137 715.8931)" class="st0 st15">Shader</text>
<text transform="matrix(1 0 0 1 304.2984 715.8931)" class="st0 st15 st6">s|</text>
<text transform="matrix(1 0 0 1 325.8189 715.8931)" class="st0 st15">3</text>
<text transform="matrix(1 0 0 1 331.1997 715.8931)" class="st0 st15 st6">D</text>
<text transform="matrix(1 0 0 1 341.9605 715.8931)" class="st0 st15">Pape</text>
<text transform="matrix(1 0 0 1 363.4829 715.8931)" class="st0 st15 st6">r</text>
<text transform="matrix(1 0 0 1 374.2437 715.8931)" class="st0 st15">Craft</text>
<text transform="matrix(1 0 0 1 401.147 715.8931)" class="st0 st15 st6">s|</text>
<text transform="matrix(1 0 0 1 422.6685 715.8931)" class="st0 st15">3</text>
<text transform="matrix(1 0 0 1 428.0493 715.8931)" class="st0 st15 st6">D</text>
<text transform="matrix(1 0 0 1 438.8101 715.8931)" class="st0 st15">Printin</text>
<text transform="matrix(1 0 0 1 476.4751 715.8931)" class="st0 st15 st6">g|</text>
<text transform="matrix(1 0 0 1 497.9956 715.8931)" class="st0 st15">Pixe</text>
<text transform="matrix(1 0 0 1 519.5191 715.8931)" class="st0 st15 st6">l</text>
<text transform="matrix(1 0 0 1 530.2788 715.8931)" class="st0 st15">Art</text>
</svg>
