<?xml version="1.0" encoding="UTF-8"?><svg id="Layer_1" xmlns="http://www.w3.org/2000/svg" viewBox="0 0 24 24"><path d="M12.5,7c0,.83-.67,1.5-1.5,1.5h-2.5v2.5c0,.83-.67,1.5-1.5,1.5s-1.5-.67-1.5-1.5v-2.5H3c-.83,0-1.5-.67-1.5-1.5s.67-1.5,1.5-1.5h2.5V3c0-.83,.67-1.5,1.5-1.5s1.5,.67,1.5,1.5v2.5h2.5c.83,0,1.5,.67,1.5,1.5Z" style="fill:#000000;"/><path d="M22.5,17c0,.83-.67,1.5-1.5,1.5H13c-.83,0-1.5-.67-1.5-1.5s.67-1.5,1.5-1.5h8c.83,0,1.5,.67,1.5,1.5Z" style="fill:#000000;"/><path d="M21.06,8.94c.59,.58,.59,1.54,0,2.12-.29,.29-.68,.44-1.06,.44s-.77-.15-1.06-.44l-1.94-1.94-1.94,1.94c-.29,.29-.68,.44-1.06,.44s-.77-.15-1.06-.44c-.59-.58-.59-1.54,0-2.12l1.94-1.94-1.94-1.94c-.59-.58-.59-1.54,0-2.12,.59-.59,1.53-.59,2.12,0l1.94,1.94,1.94-1.94c.59-.59,1.53-.59,2.12,0,.59,.58,.59,1.54,0,2.12l-1.94,1.94,1.94,1.94Z" style="fill:#000000;"/><path d="M11.5,15c0,.83-.67,1.5-1.5,1.5H3c-.83,0-1.5-.67-1.5-1.5s.67-1.5,1.5-1.5h7c.83,0,1.5,.67,1.5,1.5Z" style="fill:#000000;"/><path d="M11.5,19c0,.83-.67,1.5-1.5,1.5H3c-.83,0-1.5-.67-1.5-1.5s.67-1.5,1.5-1.5h7c.83,0,1.5,.67,1.5,1.5Z" style="fill:#000000;"/><circle cx="17" cy="13" r="1.5" style="fill:#000000;"/><circle cx="17" cy="21" r="1.5" style="fill:#000000;"/></svg>