<?xml version="1.0" encoding="UTF-8"?><svg id="Layer_1" xmlns="http://www.w3.org/2000/svg" viewBox="0 0 24 24"><g><path d="M18,21h-3c0-1.1-.9-2-2-2-.08,0-1.88-.01-1.89-.58v-.06c.05-.17,.05-.25,.05-.44,0-2.8-2.28-5.08-5.08-5.08S1,15.12,1,17.92s2.28,5.08,5.08,5.08h11.92c.55,0,1-.45,1-1s-.45-1-1-1Zm-11.92,0c-1.7,0-3.08-1.38-3.08-3.08s1.38-3.08,3.08-3.08,3.08,1.38,3.08,3.08c0,0-.05,.21-.05,.52,.01,.88,.48,2.56,3.89,2.56H6.08Z" style="fill:#000000;"/><path d="M13,21H6.08c-1.7,0-3.08-1.38-3.08-3.08s1.38-3.08,3.08-3.08,3.08,1.38,3.08,3.08c0,0-.05,.21-.05,.52,.01,.88,.48,2.56,3.89,2.56Z" style="fill:#fff;"/></g><path d="M19.22,3.87l-5,7c-.29,.41-.75,.63-1.22,.63-.3,0-.61-.09-.87-.28-.67-.47-.82-1.38-.37-2.05,0-.01,.01-.03,.02-.04l3.65-5.11c-.42,.23-.89,.56-1.37,1.04-1.81,1.81-2.71,3.59-2.72,3.61-.03,.06-.06,.11-.1,.16-.41,.62-1.23,.85-1.91,.51-.74-.37-1.04-1.27-.67-2.01,.04-.09,1.13-2.24,3.28-4.39C14.31,.57,16.73,.5,17,.5c.4,0,.78,.16,1.06,.44l1,1c.52,.52,.59,1.34,.16,1.93Z" style="fill:#000000;"/><path d="M11.67,14.34c-.21,.11-.44,.16-.67,.16-.54,0-1.07-.3-1.34-.82-.02-.04-.65-1.18-1.66-1.18-.83,0-1.5-.67-1.5-1.5s.67-1.5,1.5-1.5c2.31,0,3.82,1.78,4.34,2.83,.37,.74,.07,1.64-.67,2.01Z" style="fill:#000000;"/></svg>