<?xml version="1.0" encoding="UTF-8"?><svg id="Layer_1" xmlns="http://www.w3.org/2000/svg" viewBox="0 0 24 24"><path d="M22,3.5H2c-.83,0-1.5,.67-1.5,1.5v15c0,.83,.67,1.5,1.5,1.5H22c.83,0,1.5-.67,1.5-1.5V5c0-.83-.67-1.5-1.5-1.5Zm-1.5,15H3.5V9.5H20.5v9Z" style="fill:#000000;"/><path d="M3.5,9.5v9H20.5V9.5H3.5Zm4.56,7.56c-.29,.29-.68,.44-1.06,.44s-.77-.15-1.06-.44c-.59-.58-.59-1.54,0-2.12l.94-.94-.94-.94c-.59-.58-.59-1.54,0-2.12,.59-.59,1.53-.59,2.12,0l2,2c.59,.58,.59,1.54,0,2.12l-2,2Zm8.94,.44h-5c-.83,0-1.5-.67-1.5-1.5s.67-1.5,1.5-1.5h5c.83,0,1.5,.67,1.5,1.5s-.67,1.5-1.5,1.5Z" style="fill:#fff;"/><path d="M10.06,15.06l-2,2c-.29,.29-.68,.44-1.06,.44s-.77-.15-1.06-.44c-.59-.58-.59-1.54,0-2.12l.94-.94-.94-.94c-.59-.58-.59-1.54,0-2.12,.59-.59,1.53-.59,2.12,0l2,2c.59,.58,.59,1.54,0,2.12Z" style="fill:#000000;"/><path d="M18.5,16c0,.83-.67,1.5-1.5,1.5h-5c-.83,0-1.5-.67-1.5-1.5s.67-1.5,1.5-1.5h5c.83,0,1.5,.67,1.5,1.5Z" style="fill:#000000;"/></svg>