<?xml version="1.0" encoding="UTF-8"?><svg id="Layer_1" xmlns="http://www.w3.org/2000/svg" viewBox="0 0 24 24"><g><path d="M21,5.41c-.5,0-1.23-.49-1.94-.97-1.06-.72-2.38-1.61-4.07-1.61-1.2,0-2.23,.37-3.08,.93-.85-.56-1.88-.93-3.08-.93-.97,0-1.82,.29-2.57,.68l-1.93-1.92L.59,5.33l.57,.58C.35,6.45-.18,7.36-.18,8.41v8.59c0,1.27,.79,2.36,1.91,2.79,.29,.48,.84,.76,1.44,.7l7.93-.88c.17,.55,.58,1.01,1.13,1.24,.25,.1,.51,.15,.77,.15,.35,0,.69-.09,1-.27,.31,.18,.65,.27,1,.27,.26,0,.52-.05,.77-.15,.4-.17,.73-.46,.94-.82l4.12,.46c.06,.01,.12,.01,.17,.01,.58,0,1.09-.33,1.34-.82,.99-.49,1.66-1.5,1.66-2.68V8.41c0-1.66-1.34-3-3-3Zm-17.44-.23l.77-.77,.19,.19,2.16,2.16,1.32,1.32v.92h-.92l-3.67-3.67,.15-.15Zm7.85,10.96s-.13-.27-.41-.6c-.33-.4-.86-.88-1.59-1.05-.18-.05-.38-.07-.58-.07-1.72,0-3.43,2.58-6.01,2.58V8.41c.26,0,.52-.03,.76-.08l2.67,2.67h3.75v-3.75l-.48-.48-.92-.92c.08-.01,.15-.02,.23-.02,.37,0,.7,.08,.99,.21,1.06,.45,1.59,1.51,1.59,1.51v8.59Zm9.59,.86c-.16,0-.32-.01-.47-.03-.16-.02-.31-.04-.46-.08-1.17-.28-2.16-1.03-3.07-1.63-.37-.24-.72-.46-1.07-.61-.1-.05-.19-.09-.29-.12-.21-.07-.43-.11-.64-.11v4.58l-1-1-1,1v-3.66c-.39,.41-.59,.8-.59,.8V7.55s.03-.07,.11-.18c.02-.04,.05-.09,.1-.15,.15-.23,.41-.54,.76-.81,.08-.07,.16-.13,.25-.18,.11-.07,.24-.14,.37-.19,.08-.04,.17-.07,.26-.1,.07-.02,.14-.04,.2-.05,.07-.02,.14-.03,.22-.04,.1-.01,.2-.02,.31-.02,1.71,0,3.43,2.58,6.01,2.58v8.59Z" style="fill:#000000;"/><path d="M21,8.41v8.59c-.16,0-.32-.01-.47-.03-.16-.02-.31-.04-.46-.08-1.17-.28-2.16-1.03-3.07-1.63-.37-.24-.72-.46-1.07-.61-.1-.05-.19-.09-.29-.12-.21-.07-.43-.11-.64-.11v4.58l-1-1-1,1v-3.66c-.39,.41-.59,.8-.59,.8V7.55s.03-.07,.11-.18c.02-.04,.05-.09,.1-.15,.15-.23,.41-.54,.76-.81,.08-.07,.16-.13,.25-.18,.11-.07,.24-.14,.37-.19,.08-.04,.17-.07,.26-.1,.07-.02,.14-.04,.2-.05,.07-.02,.14-.03,.22-.04,.1-.01,.2-.02,.31-.02,1.71,0,3.43,2.58,6.01,2.58Z" style="fill:#fff;"/><path d="M11.41,7.55v8.59s-.13-.27-.41-.6c-.33-.4-.86-.88-1.59-1.05-.18-.05-.38-.07-.58-.07-1.72,0-3.43,2.58-6.01,2.58V8.41c.26,0,.52-.03,.76-.08l2.67,2.67h3.75v-3.75l-.48-.48-.92-.92c.08-.01,.15-.02,.23-.02,.37,0,.7,.08,.99,.21,1.06,.45,1.59,1.51,1.59,1.51Z" style="fill:#fff;"/></g><path d="M21,8.41v8.59c-.16,0-.32-.01-.47-.03-.16-.02-.31-.05-.46-.08-1.17-.28-2.16-1.03-3.07-1.63-.37-.24-.72-.46-1.07-.61-.1-.05-.19-.09-.29-.12-.21-.07-.43-.11-.64-.11v4.58l-1-1-1,1v-3.66c-.39,.41-.59,.8-.59,.8V7.55s.03-.07,.11-.18c.02-.04,.05-.09,.1-.15,.15-.23,.41-.54,.76-.81,.08-.07,.16-.13,.25-.18,.11-.07,.24-.14,.37-.19,.08-.04,.17-.07,.26-.1,.07-.02,.14-.04,.2-.05,.07-.02,.14-.03,.22-.04,.1-.01,.2-.02,.31-.02,1.71,0,3.43,2.58,6.01,2.58Z" style="fill:#fff;"/><polygon points="8 8.08 8 9 7.08 9 3.41 5.33 3.56 5.18 4.33 4.41 4.52 4.6 6.68 6.76 8 8.08" style="fill:#fff;"/></svg>