<?xml version="1.0" encoding="UTF-8"?><svg id="Layer_1" xmlns="http://www.w3.org/2000/svg" viewBox="0 0 24 24"><path d="M24,13c0,8.86-9.23,10.96-9.32,10.98-.07,.01-.14,.02-.21,.02-.26,0-.52-.1-.71-.29-.24-.24-.34-.58-.27-.91,.19-.95,.51-3.88-.53-4.93-.3-.3-.38-.76-.19-1.14,.19-.39,.59-.6,1.02-.56,.01,0,1.95,.22,2.95-.97,.82-.99,.87-2.8,.13-5.25-.07-.24-.05-.5,.07-.73,0-.01,.46-.98,.16-2.02-.52-.06-1.3,.06-1.65,1.12-.18,.52-.74,.8-1.27,.63-.02-.01-2.22-.71-4.36,0-.53,.17-1.09-.11-1.27-.63-.11-.32-.55-1.27-1.63-1.14-.13,.47-.25,1.27,.14,2.04,.12,.24,.14,.51,.06,.76-.3,.9-.84,3.56,.21,5.02,.57,.78,1.55,1.17,3,1.17,.35,0,.67,.18,.85,.47,.19,.3,.2,.66,.05,.97l-.75,1.49c-.07,.59-.38,1.29-1.07,1.64-.95,.48-2.21,.12-3.84-1.11-1.01-.75-1.59-1.02-1.88-1.12-.17,.29-.49,.49-.86,.49-.55,0-1-.45-1-1,0-.44,.22-1.06,.85-1.37,.92-.46,2.18-.03,4.09,1.4,1.04,.79,1.54,.9,1.71,.91,.01-.04,.02-.09,.02-.13,0-.14,.04-.3,.1-.42l.18-.36c-1.34-.26-2.37-.89-3.08-1.87-1.55-2.15-.89-5.33-.6-6.42-.76-1.96,.13-3.77,.17-3.85,.12-.24,.33-.42,.58-.51,2.02-.67,3.45,.31,4.18,1.44,1.56-.33,3.02-.16,3.91,0,1.04-1.72,2.99-1.85,4.21-1.45,.25,.09,.46,.27,.58,.51,.78,1.57,.41,3.12,.16,3.83,.84,3.01,.63,5.29-.63,6.78-.85,1-1.98,1.42-2.93,1.58,.39,1.16,.41,2.48,.33,3.5,2.24-.88,6.34-3.21,6.34-8.58,0-7.38-5.39-10-10-10C7.15,3,2,6.5,2,13c0,.55-.45,1-1,1s-1-.45-1-1C0,5.21,6.18,1,12,1s12,3.71,12,12Z" style="fill:#000000;"/></svg>