<?xml version="1.0" encoding="UTF-8"?><svg id="Layer_1" xmlns="http://www.w3.org/2000/svg" viewBox="0 0 24 24"><path d="M6.56,6.56c-.29,.29-.68,.44-1.06,.44s-.77-.15-1.06-.44L1.44,3.56c-.59-.59-.59-1.53,0-2.12,.59-.59,1.53-.59,2.12,0l3,3c.59,.59,.59,1.53,0,2.12Z"/><path d="M6.56,11.56c-.29,.29-.68,.44-1.06,.44s-.77-.15-1.06-.44l-3-3c-.59-.59-.59-1.53,0-2.12,.59-.59,1.53-.59,2.12,0l3,3c.59,.59,.59,1.53,0,2.12Z"/><path d="M6.88,15.09l-3,7c-.25,.57-.8,.91-1.38,.91-.2,0-.4-.04-.59-.12-.76-.33-1.12-1.21-.79-1.97l3-7c.33-.76,1.21-1.11,1.97-.79,.76,.33,1.12,1.21,.79,1.97Z"/><path d="M22.87,22.11c-.25,.56-.8,.89-1.37,.89-.2,0-.41-.04-.61-.13-.21-.09-3.01-1.36-6.04-4.02-1.53,1.41-3.39,2.76-5.64,3.97-.23,.12-.47,.18-.71,.18-.53,0-1.05-.29-1.32-.79-.39-.73-.12-1.64,.61-2.03,1.96-1.05,3.58-2.22,4.91-3.44-1.85-2.04-3.57-4.61-4.62-7.77-.27-.78,.16-1.63,.95-1.89,.78-.27,1.63,.16,1.89,.95,.87,2.6,2.31,4.77,3.86,6.51,3.38-4.13,4.09-8.4,4.22-10.54H9.5c-.83,0-1.5-.67-1.5-1.5s.67-1.5,1.5-1.5h11c.78,0,1.43,.6,1.49,1.38,.04,.4,.55,7.59-5.05,14.28,2.68,2.32,5.13,3.45,5.17,3.47,.76,.34,1.1,1.23,.76,1.98Z"/></svg>