<?xml version="1.0" encoding="UTF-8"?><svg id="Layer_1" xmlns="http://www.w3.org/2000/svg" viewBox="0 0 24 24"><path d="M10.37,21.99l.06,.06v-.07s-.04,.01-.06,.01Z" style="fill:#000000;"/><path d="M13.17,15.65h-.03s.01,0,.02-.02c0,.01,.01,.01,.01,.02Z" style="fill:#fff;"/><circle cx="16.35" cy="10.26" r=".87"/><g><path d="M13.16,15.63s0,.01-.02,.02h.03s-.01,0-.01-.02Zm-.02,6.63s.01,0,.02,.02c.01,0,.01-.01,.01-.02h-.03Z" style="fill:#49702a;"/><path d="M24,10.26c0-1.05-.49-1.98-1.26-2.59,.52-.75,.83-1.65,.83-2.63,0-2.54-2.07-4.61-4.61-4.61-1.21,0-2.36,.48-3.21,1.31h-1.41c-.85-.83-2-1.31-3.21-1.31-.98,0-1.88,.31-2.63,.83-.6-.77-1.53-1.26-2.59-1.26-1.82,0-3.3,1.48-3.3,3.3V7.65c0,.38,.06,.75,.19,1.1-1.58,.23-2.8,1.6-2.8,3.25,0,1.51,1.02,2.79,2.41,3.17-1.21,.84-1.98,2.23-1.98,3.79,0,2.54,2.07,4.61,4.61,4.61,.94,0,1.87-.29,2.63-.84,.59,.77,1.53,1.27,2.59,1.27,1.25,0,2.34-.69,2.9-1.72t-.02-.02h.03s0,.02-.01,.02c.85,.82,1.99,1.29,3.19,1.29,2.54,0,4.61-2.07,4.61-4.61,0-.37-.04-.72-.13-1.06,1.76-.06,3.17-1.51,3.17-3.29,0-.84-.31-1.6-.82-2.18,.51-.58,.82-1.33,.82-2.17Zm-15.91,10h-.79c-.09,.16-.21,.31-.34,.45-.47,.52-1.15,.86-1.92,.86-1.43,0-2.61-1.18-2.61-2.61,0-1.34,1.02-2.45,2.31-2.59h0c.1-.01,.2-.02,.3-.02,.97,0,1.81,.53,2.26,1.3h.79v2.61Zm3.48,.44c0,.09-.01,.18-.03,.26,0,.06-.02,.12-.05,.17,0,.02-.01,.04-.02,.06,0,.03,0,.05-.03,.07-.01,.02-.02,.04-.03,.07-.03,.05-.06,.1-.09,.14-.04,.06-.09,.11-.14,.15-.05,.06-.11,.11-.18,.16-.01,0-.03,.01-.04,.02-.05,.03-.11,.07-.17,.09-.02,0-.05,.02-.08,.03-.06,.02-.12,.04-.18,.05-.03,.01-.07,.01-.1,.01v.07l-.06-.06s-.07,.01-.11,.01c-.06,0-.12,0-.17-.02-.64-.08-1.13-.62-1.13-1.28v-2.94l-4.46-4.46h-1.2c-.72,0-1.3-.58-1.3-1.3s.58-1.3,1.3-1.3h1.74c.35,0,.68,.13,.93,.38l4.56,4.57,.43,.43,.22,.22c.25,.24,.39,.57,.39,.92v3.48Zm4.78,.87c-.13,0-.27-.01-.4-.03s-.26-.06-.38-.1c-.63-.19-1.16-.63-1.48-1.18h-1.66v-2.61h1.66c.09-.15,.2-.3,.32-.43,.08-.09,.17-.17,.26-.25,.08-.07,.16-.13,.24-.18,.06-.05,.13-.09,.2-.12,.15-.09,.3-.15,.46-.2,.12-.04,.25-.07,.38-.09,.13-.02,.26-.03,.4-.03,1.06,0,1.98,.64,2.38,1.56,.15,.32,.23,.67,.23,1.05,0,1.43-1.18,2.61-2.61,2.61Zm4.35-5.66h-7.83c-.15,0-.3-.03-.44-.08-.04,0-.08-.03-.12-.05-.07-.03-.14-.08-.21-.13-.05-.03-.1-.07-.15-.12l-6.82-6.82-.14-.14c-.24-.24-.38-.57-.38-.92V3.3c0-.72,.58-1.3,1.3-1.3,.08,0,.16,.01,.24,.03,.08,.01,.16,.03,.23,.06,.06,.02,.12,.05,.17,.08,.09,.05,.17,.1,.24,.17,.04,.03,.07,.06,.1,.1,.09,.1,.17,.22,.23,.35,.06,.16,.1,.33,.1,.51v3.81l2.22,2.22,2.62,2.62,1.35,1.35h7.29c.15,0,.3,.03,.44,.08,.07,.02,.14,.06,.21,.1,.01,0,.02,.01,.03,.01,0,.01,.01,.01,.01,.01,.03,.02,.06,.04,.08,.06,.03,.02,.06,.04,.09,.07,.03,.02,.05,.04,.07,.07,.08,.08,.14,.16,.2,.26,.03,.06,.06,.12,.08,.18,.06,.15,.09,.3,.09,.47,0,.72-.58,1.3-1.3,1.3Zm.68-4.53c-.2,.12-.43,.19-.68,.19h-2.09c-.45,.77-1.3,1.3-2.26,1.3-1.23,0-2.26-.85-2.54-2-.05-.2-.07-.4-.07-.61,0-.23,.03-.45,.09-.67l-2.03-2.03c-.22,.06-.43,.09-.67,.09-.21,0-.42-.03-.62-.08-1.14-.28-1.99-1.31-1.99-2.53,0-.68,.27-1.3,.7-1.76h0c.48-.53,1.16-.85,1.91-.85,.97,0,1.81,.54,2.26,1.31h3.31c.45-.77,1.29-1.31,2.26-1.31,1.43,0,2.61,1.18,2.61,2.61s-1.18,2.61-2.61,2.61c-.97,0-1.81-.53-2.26-1.3h-2.42l1.4,1.4c.22-.06,.43-.1,.67-.1,.96,0,1.81,.53,2.26,1.31h2.09c.72,0,1.3,.58,1.3,1.3,0,.47-.25,.89-.62,1.12Z"/><path d="M21.91,14.14c-.02-.06-.05-.12-.08-.18-.06-.1-.12-.18-.2-.26-.02-.03-.04-.05-.07-.07-.03-.03-.06-.05-.09-.07-.02-.02-.05-.04-.08-.06,0,0-.01,0-.01-.01-.01,0-.02-.01-.03-.01-.07-.04-.14-.07-.21-.1-.14-.05-.29-.08-.44-.08h-7.29l-1.35-1.35-2.62-2.62-2.22-2.22V3.3c0-.18-.04-.35-.1-.51-.06-.13-.14-.25-.23-.35-.03-.04-.06-.07-.1-.1-.07-.07-.15-.12-.24-.17-.05-.03-.11-.06-.17-.08-.07-.03-.15-.05-.23-.06-.08-.02-.16-.03-.24-.03-.72,0-1.3,.58-1.3,1.3V7.65c0,.35,.14,.68,.38,.92l.14,.14,6.82,6.82s.1,.09,.15,.12c.07,.05,.14,.1,.21,.13,.04,.02,.08,.04,.12,.05,.14,.05,.29,.08,.44,.08h7.83c.72,0,1.3-.58,1.3-1.3,0-.17-.03-.32-.09-.47Zm-8.77,1.51s.01,0,.02-.02c0,.01,.01,.01,.01,.02h-.03Z" style="fill:#fff;"/><path d="M20.7,8.96h-2.09c-.45-.78-1.3-1.31-2.26-1.31-.24,0-.45,.04-.67,.1l-1.4-1.4h2.42c.45,.77,1.29,1.3,2.26,1.3,1.43,0,2.61-1.17,2.61-2.61s-1.18-2.61-2.61-2.61c-.97,0-1.81,.54-2.26,1.31h-3.31c-.45-.77-1.29-1.31-2.26-1.31-.75,0-1.43,.32-1.91,.84h0c-.43,.47-.7,1.09-.7,1.77,0,1.22,.85,2.25,1.99,2.53,.2,.05,.41,.08,.62,.08,.24,0,.45-.03,.67-.09l2.03,2.03c-.06,.22-.09,.44-.09,.67,0,.21,.02,.41,.07,.61,.28,1.15,1.31,2,2.54,2,.96,0,1.81-.53,2.26-1.3h2.09c.25,0,.48-.07,.68-.19,.37-.23,.62-.65,.62-1.12,0-.72-.58-1.3-1.3-1.3Zm-2.35-4.54c.15-.15,.37-.25,.61-.25,.47,0,.87,.4,.87,.87s-.4,.87-.87,.87c-.24,0-.46-.09-.61-.24-.16-.17-.26-.38-.26-.63s.1-.46,.26-.62Zm-6.61,1.25c-.16,.15-.37,.24-.61,.24-.48,0-.87-.39-.87-.87s.39-.87,.87-.87c.24,0,.45,.1,.61,.25,.16,.16,.26,.38,.26,.62s-.1,.46-.26,.63Zm4.61,5.46c-.48,0-.87-.39-.87-.87s.39-.87,.87-.87,.87,.39,.87,.87-.39,.87-.87,.87Z" style="fill:#fff;"/><path d="M12,5.04c0,.25-.1,.46-.26,.63-.16,.15-.37,.24-.61,.24-.48,0-.87-.39-.87-.87s.39-.87,.87-.87c.24,0,.45,.1,.61,.25,.16,.16,.26,.38,.26,.62Z"/><path d="M19.83,5.04c0,.48-.4,.87-.87,.87-.24,0-.46-.09-.61-.24-.16-.17-.26-.38-.26-.63s.1-.46,.26-.62c.15-.15,.37-.25,.61-.25,.47,0,.87,.4,.87,.87Z"/><path d="M7.3,17.65c-.45-.77-1.29-1.3-2.26-1.3-.1,0-.2,.01-.3,.01h0c-1.29,.15-2.31,1.26-2.31,2.6,0,1.43,1.18,2.61,2.61,2.61,.77,0,1.45-.34,1.92-.86,.13-.14,.25-.29,.34-.45h.79v-2.61h-.79Zm-1.65,1.93c-.15,.15-.37,.25-.61,.25-.47,0-.87-.4-.87-.87s.4-.87,.87-.87c.24,0,.46,.09,.61,.24,.16,.17,.26,.38,.26,.63s-.1,.46-.26,.62Z" style="fill:#fff;"/><path d="M5.91,18.96c0,.24-.1,.46-.26,.62-.15,.15-.37,.25-.61,.25-.47,0-.87-.4-.87-.87s.4-.87,.87-.87c.24,0,.46,.09,.61,.24,.16,.17,.26,.38,.26,.63Z"/><path d="M18.73,17.91c-.4-.92-1.32-1.56-2.38-1.56-.14,0-.27,.01-.4,.03-.13,.02-.26,.05-.38,.09-.16,.05-.31,.11-.46,.2-.07,.03-.14,.07-.2,.12-.08,.05-.16,.11-.24,.18-.09,.08-.18,.16-.26,.25-.12,.13-.23,.28-.32,.43h-1.66v2.61h1.66c.32,.55,.85,.99,1.48,1.18,.12,.04,.25,.08,.38,.1s.27,.03,.4,.03c1.43,0,2.61-1.18,2.61-2.61,0-.38-.08-.73-.23-1.05Zm-2.38,1.92c-.24,0-.45-.1-.61-.25-.07-.07-.13-.15-.17-.24h0c-.06-.12-.09-.24-.09-.38s.03-.27,.09-.38c.04-.09,.1-.18,.17-.25,.16-.15,.37-.24,.61-.24,.48,0,.87,.39,.87,.87s-.39,.87-.87,.87Z" style="fill:#fff;"/><path d="M17.22,18.96c0,.47-.39,.87-.87,.87-.24,0-.45-.1-.61-.25-.07-.07-.13-.15-.17-.24h0c-.06-.12-.09-.24-.09-.38s.03-.27,.09-.38c.04-.09,.1-.18,.17-.25,.16-.15,.37-.24,.61-.24,.48,0,.87,.39,.87,.87Z"/></g><path d="M10.37,21.99l.06,.06v-.07s-.04,.01-.06,.01Z" style="fill:#000000;"/><path d="M13.14,22.26s.01,0,.02,.02c.01,0,.01-.01,.01-.02h-.03Zm-2.77-.27l.06,.06v-.07s-.04,.01-.06,.01Zm2.79-6.36s0,.01-.02,.02h.03s-.01,0-.01-.02Z" style="fill:gray;"/><g><path d="M10.37,21.99l.06,.06v-.07s-.04,.01-.06,.01Z" style="fill:#000000;"/><path d="M11.57,17.22v3.48c0,.09-.01,.18-.03,.26,0,.06-.02,.12-.05,.17,0,.02-.01,.04-.02,.06,0,.03,0,.05-.03,.07-.01,.02-.02,.04-.03,.07-.03,.05-.06,.1-.09,.14-.04,.06-.09,.11-.14,.15-.05,.06-.11,.11-.18,.16-.01,0-.03,.01-.04,.02-.05,.03-.11,.07-.17,.09-.02,0-.05,.02-.08,.03-.06,.02-.12,.04-.18,.05-.03,.01-.07,.01-.1,.01-.02,.01-.04,.01-.06,.01-.03,.01-.07,.01-.11,.01-.06,0-.12,0-.17-.02-.64-.08-1.13-.62-1.13-1.28v-2.94l-4.46-4.46h-1.2c-.72,0-1.3-.58-1.3-1.3s.58-1.3,1.3-1.3h1.74c.35,0,.68,.13,.93,.38l4.56,4.57,.43,.43,.22,.22c.25,.24,.39,.57,.39,.92Z" style="fill:#fff;"/></g></svg>