<?xml version="1.0" encoding="UTF-8"?><svg id="Layer_1" xmlns="http://www.w3.org/2000/svg" viewBox="0 0 24 24"><path d="M20.14,19.47h-.01s0-.05,0-.07v.07Z" style="fill:gray;"/><path d="M3.59,11.15c-.06,0-.12,0-.19-.02-.31-.06-1.88-.42-2.42-1.66-.21-.48-.34-1.27,.28-2.26,.64-1.03,1.82-1.66,3.42-1.82,3.03-.29,7.19,1.18,9.1,3.23,.38,.4,.35,1.04-.05,1.41-.4,.38-1.04,.35-1.41-.05-1.49-1.6-5.03-2.84-7.44-2.6-.66,.06-1.53,.27-1.91,.88-.14,.22-.16,.36-.15,.4,.04,.1,.22,.22,.44,.32l1-1.2c.21-.25,.52-.38,.84-.36,.32,.02,.61,.2,.78,.47l.36,.59,1.48-.35c.53-.13,1.08,.21,1.2,.75,.13,.54-.21,1.08-.75,1.2l-2.18,.51c-.42,.1-.85-.08-1.08-.45v-.02s-.56,.65-.56,.65c-.19,.23-.47,.36-.77,.36Z" style="fill:#000000;"/><path d="M22.95,6.2c-.47-.89-1.25-1.54-2.21-1.83L8.71,.67c-.95-.3-1.97-.2-2.85,.27-.85,.45-1.49,1.19-1.8,2.1-.12,.3-.33,.91-.22,1.48l.03,.23c.23-.04,.48-.08,.73-.1,.27-.03,.56-.04,.86-.04,.47,0,.95,.03,1.44,.1l-.07-.49,.07-.19c.08-.26,.26-.39,.36-.44,.11-.06,.32-.13,.57-.06l8.53,2.62c-.12,.22-.22,.45-.3,.7-.15,.48-.2,.97-.15,1.45h-.03l.84,7.51,.25,3.75c0,.12-.03,.23-.08,.33-.12,.24-.37,.41-.66,.41-.41,0-.74-.33-.74-.74,0-.33,.21-.61,.51-.7v-3.27l-7.98-2.45-.29-2.17-1.57,.37c-.13,.03-.26,.04-.4,.04-.27,0-.53-.06-.77-.18l-.06,.07c-.05,.06-.1,.12-.16,.17l.1,.78c-1.79-.24-3.54,.84-4.09,2.61-.61,1.98,.5,4.08,2.48,4.68l12.03,3.71c.36,.11,.73,.16,1.1,.16,1.6,0,3.08-1.04,3.58-2.64,.13-.42,.18-.85,.16-1.27,.01-.02,0-.05,0-.07l-.04-.36-.82-7.36c.12,.01,.25,.02,.37,.02,.61,0,1.21-.15,1.75-.44,.89-.47,1.54-1.25,1.83-2.21,.3-.96,.2-1.97-.27-2.85Zm-10.44,13.02l-8.37-2.57c-.39-.12-.62-.54-.49-.94,.12-.39,.54-.61,.93-.49l8.36,2.57c-.24,.43-.39,.92-.43,1.43Zm7.84-11.05c-.08,.26-.26,.38-.36,.44-.1,.05-.31,.13-.57,.05s-.39-.26-.44-.36c-.05-.1-.13-.31-.05-.57,.09-.32,.39-.53,.71-.53,.07,0,.15,0,.22,.03,.26,.08,.39,.27,.44,.37,.05,.1,.13,.31,.05,.57Z" style="fill:#000000;"/></svg>