<?xml version="1.0" encoding="UTF-8"?><svg id="Layer_1" xmlns="http://www.w3.org/2000/svg" viewBox="0 0 24 24"><path d="M18.55,1H5.45C3,1,1,3,1,5.45v13.1c0,2.45,2,4.45,4.45,4.45h13.1c2.45,0,4.45-2,4.45-4.45V5.45c0-2.45-2-4.45-4.45-4.45Zm2.45,17.55c0,1.35-1.1,2.45-2.45,2.45H5.45c-1.35,0-2.45-1.1-2.45-2.45V5.45c0-1.35,1.1-2.45,2.45-2.45h13.1c1.35,0,2.45,1.1,2.45,2.45v13.1Z" style="fill:#000000;"/><path d="M8.5,11v7c0,.83-.67,1.5-1.5,1.5s-1.5-.67-1.5-1.5v-7c0-.83,.67-1.5,1.5-1.5s1.5,.67,1.5,1.5Z" style="fill:#000000;"/><path d="M18.5,13v5c0,.83-.67,1.5-1.5,1.5s-1.5-.67-1.5-1.5v-5c-.02-.22-.14-.5-.9-.5-2.04,0-2.1,2.24-2.1,2.5v3c0,.83-.67,1.5-1.5,1.5s-1.5-.67-1.5-1.5v-7c0-.83,.67-1.5,1.5-1.5,.49,0,.92,.23,1.18,.59,.68-.38,1.49-.59,2.42-.59,2.86,0,3.9,2.09,3.9,3.5Z" style="fill:#000000;"/><path d="M8.5,7c0,.1-.01,.2-.03,.29-.02,.1-.05,.19-.08,.28-.04,.09-.09,.18-.14,.26-.06,.09-.12,.16-.19,.23s-.15,.13-.23,.19c-.08,.05-.17,.1-.26,.14-.09,.03-.18,.06-.28,.08-.09,.02-.19,.03-.29,.03-.39,0-.78-.16-1.06-.44-.07-.07-.13-.14-.19-.23-.05-.08-.1-.17-.13-.26-.04-.09-.07-.18-.09-.28-.02-.09-.03-.19-.03-.29,0-.4,.16-.78,.44-1.06,.07-.07,.15-.13,.23-.19,.08-.05,.17-.1,.26-.14,.09-.03,.18-.06,.28-.08,.48-.1,1.01,.06,1.35,.41,.28,.28,.44,.66,.44,1.06Z" style="fill:#000000;"/></svg>