<?xml version="1.0" encoding="UTF-8"?><svg id="Layer_1" xmlns="http://www.w3.org/2000/svg" viewBox="0 0 24 24"><g><path d="M20,.5H4c-.83,0-1.5,.67-1.5,1.5V22c0,.83,.67,1.5,1.5,1.5H20c.83,0,1.5-.67,1.5-1.5V2c0-.83-.67-1.5-1.5-1.5Zm-1.5,20H5.5V3.5h13V20.5Z" style="fill:#000000;"/><path d="M5.5,3.5V20.5h13V3.5H5.5Zm10.5,12h-4c-.83,0-1.5-.67-1.5-1.5,0,.83-.67,1.5-1.5,1.5h-1c-.83,0-1.5-.67-1.5-1.5s.67-1.5,1.5-1.5h1c.83,0,1.5,.67,1.5,1.5,0-.83,.67-1.5,1.5-1.5h4c.83,0,1.5,.67,1.5,1.5s-.67,1.5-1.5,1.5Zm0-4h-4c-.83,0-1.5-.67-1.5-1.5,0,.83-.67,1.5-1.5,1.5h-1c-.83,0-1.5-.67-1.5-1.5s.67-1.5,1.5-1.5h1c.83,0,1.5,.67,1.5,1.5,0-.83,.67-1.5,1.5-1.5h4c.83,0,1.5,.67,1.5,1.5s-.67,1.5-1.5,1.5Zm0-4h-4c-.83,0-1.5-.67-1.5-1.5,0,.83-.67,1.5-1.5,1.5h-1c-.83,0-1.5-.67-1.5-1.5s.67-1.5,1.5-1.5h1c.83,0,1.5,.67,1.5,1.5,0-.83,.67-1.5,1.5-1.5h4c.83,0,1.5,.67,1.5,1.5s-.67,1.5-1.5,1.5Z" style="fill:#fff;"/><path d="M17.5,10c0,.83-.67,1.5-1.5,1.5h-4c-.83,0-1.5-.67-1.5-1.5s.67-1.5,1.5-1.5h4c.83,0,1.5,.67,1.5,1.5Z" style="fill:#fff;"/><path d="M17.5,6c0,.83-.67,1.5-1.5,1.5h-4c-.83,0-1.5-.67-1.5-1.5s.67-1.5,1.5-1.5h4c.83,0,1.5,.67,1.5,1.5Z" style="fill:#fff;"/><path d="M10.5,6c0,.83-.67,1.5-1.5,1.5h-1c-.83,0-1.5-.67-1.5-1.5s.67-1.5,1.5-1.5h1c.83,0,1.5,.67,1.5,1.5Z" style="fill:#fff;"/><path d="M10.5,10c0,.83-.67,1.5-1.5,1.5h-1c-.83,0-1.5-.67-1.5-1.5s.67-1.5,1.5-1.5h1c.83,0,1.5,.67,1.5,1.5Z" style="fill:#fff;"/><path d="M10.5,14c0,.83-.67,1.5-1.5,1.5h-1c-.83,0-1.5-.67-1.5-1.5s.67-1.5,1.5-1.5h1c.83,0,1.5,.67,1.5,1.5Z" style="fill:#fff;"/><path d="M17.5,14c0,.83-.67,1.5-1.5,1.5h-4c-.83,0-1.5-.67-1.5-1.5s.67-1.5,1.5-1.5h4c.83,0,1.5,.67,1.5,1.5Z" style="fill:#000000;"/></g><path d="M17.5,6c0,.83-.67,1.5-1.5,1.5h-4c-.83,0-1.5-.67-1.5-1.5s.67-1.5,1.5-1.5h4c.83,0,1.5,.67,1.5,1.5Z" style="fill:#000000;"/><path d="M10.5,6c0,.83-.67,1.5-1.5,1.5h-1c-.83,0-1.5-.67-1.5-1.5s.67-1.5,1.5-1.5h1c.83,0,1.5,.67,1.5,1.5Z" style="fill:#000000;"/><path d="M17.5,10c0,.83-.67,1.5-1.5,1.5h-4c-.83,0-1.5-.67-1.5-1.5s.67-1.5,1.5-1.5h4c.83,0,1.5,.67,1.5,1.5Z" style="fill:#000000;"/><path d="M10.5,10c0,.83-.67,1.5-1.5,1.5h-1c-.83,0-1.5-.67-1.5-1.5s.67-1.5,1.5-1.5h1c.83,0,1.5,.67,1.5,1.5Z" style="fill:#000000;"/><path d="M17.5,14c0,.83-.67,1.5-1.5,1.5h-4c-.83,0-1.5-.67-1.5-1.5s.67-1.5,1.5-1.5h4c.83,0,1.5,.67,1.5,1.5Z" style="fill:#000000;"/><path d="M10.5,14c0,.83-.67,1.5-1.5,1.5h-1c-.83,0-1.5-.67-1.5-1.5s.67-1.5,1.5-1.5h1c.83,0,1.5,.67,1.5,1.5Z" style="fill:#000000;"/></svg>