<?xml version="1.0" encoding="UTF-8"?><svg id="Layer_1" xmlns="http://www.w3.org/2000/svg" viewBox="0 0 24 24"><path d="M21.5,8.5v6h.5c.83,0,1.5,.67,1.5,1.5v3c0,.83-.67,1.5-1.5,1.5h-6c-.83,0-1.5-.67-1.5-1.5v-3c0-.83,.67-1.5,1.5-1.5h.5v-3.88l-3.44,3.44c-.59,.59-1.53,.59-2.12,0l-3.44-3.44v3.88h.5c.83,0,1.5,.67,1.5,1.5v3c0,.83-.67,1.5-1.5,1.5H2c-.83,0-1.5-.67-1.5-1.5v-3c0-.83,.67-1.5,1.5-1.5h.5v-6h-.5c-.83,0-1.5-.67-1.5-1.5v-3c0-.83,.67-1.5,1.5-1.5H7c.4,0,.78,.16,1.06,.44l3.94,3.94,3.94-3.94c.28-.28,.66-.44,1.06-.44h5c.83,0,1.5,.67,1.5,1.5v3c0,.83-.67,1.5-1.5,1.5h-.5Z" style="fill:#000000;"/></svg>