<?xml version="1.0" encoding="UTF-8"?><svg id="Layer_1" xmlns="http://www.w3.org/2000/svg" viewBox="0 0 24 24"><g><path d="M6.78,17.18h0s0,.01,0,0h0Zm0,0h0s0,.01,0,0h0Z" style="fill:#fff;"/><path d="M6.78,17.18h0s0,.01,0,0h0Zm-.99-3.02s0,.01,0,.02h.25c-.08,0-.16,0-.24-.02Zm.99,3.02h0s0,.01,0,0h0Z" style="fill:gray;"/></g><g><path d="M6.03,14.18h-.25s0-.01,0-.02c.08,.02,.16,.02,.24,.02Z" style="fill:#fff;"/><path d="M5.79,14.16s0,.01,0,.02h.25c-.08,0-.16,0-.24-.02Zm0,0s0,.01,0,.02h.25c-.08,0-.16,0-.24-.02Z" style="fill:#fff;"/><path d="M10.58,17.61c0,.98-.73,1.79-1.68,1.9-.08,.02-.16,.02-.24,.02-.47,0-.9-.17-1.24-.46-.42-.35-.68-.87-.68-1.46,0-.14,.02-.28,.05-.42h0c.02-.1,.05-.19,.08-.27,.12-.32,.33-.6,.59-.8,.07-.07,.15-.12,.23-.17,.29-.17,.62-.27,.97-.27,.91,0,1.68,.65,1.87,1.5,.03,.14,.05,.28,.05,.43Z" style="fill:#fff;"/></g><g><path d="M6.78,17.18h0s0,.01,0,0h0Z" style="fill:#000000;"/><path d="M17.98,5.07h-.03C16.6,2.29,13.78,.5,10.62,.5,7.15,.5,4.08,2.7,2.95,5.93c-1.81,1.09-2.95,3.06-2.95,5.2,0,1.68,.69,3.21,1.81,4.31-1.1,.81-1.81,2.12-1.81,3.58,0,2.47,2.01,4.48,4.47,4.48,1.33,0,2.53-.58,3.34-1.51,.28,.06,.57,.09,.87,.09,2.47,0,4.46-2.01,4.46-4.47,0-.14,0-.29-.02-.43h4.85c.21,0,.42-.01,.62-.03,.02,0,.04,0,.06,0,3.02-.34,5.37-2.9,5.37-6.01,0-3.34-2.72-6.06-6.05-6.06ZM5.13,20.33c-.2,.11-.42,.17-.66,.17-.81,0-1.48-.66-1.48-1.48,0-.72,.53-1.32,1.21-1.44,.09-.02,.18-.03,.27-.03,.61,0,1.13,.37,1.35,.9,.08,.17,.12,.37,.12,.57,0,.58-.33,1.08-.81,1.31Zm3.79-.82c-.08,.02-.16,.02-.24,.02-.47,0-.9-.17-1.24-.46-.42-.35-.68-.87-.68-1.46,0-.14,.02-.28,.05-.42h0s0-.01,0-.01c.02-.09,.05-.18,.08-.26,.12-.32,.33-.6,.59-.8,.07-.07,.15-.12,.23-.17,.29-.17,.62-.27,.97-.27,.91,0,1.68,.65,1.87,1.5,.03,.14,.05,.28,.05,.43,0,.98-.73,1.79-1.68,1.9Zm9.06-5.33H5.8s0-.01,0-.02c-1.57-.11-2.82-1.43-2.82-3.03,0-1.2,.71-2.3,1.81-2.79l.66-.3,.18-.69c.59-2.27,2.64-3.85,4.97-3.85s4.25,1.46,4.93,3.63l.41,1.32,1.35-.3c.24-.06,.45-.08,.67-.08,1.68,0,3.06,1.37,3.06,3.06s-1.38,3.05-3.06,3.05Z" style="fill:#000000;"/><path d="M5.92,19.02c0,.58-.33,1.08-.81,1.31-.2,.11-.42,.17-.66,.17-.81,0-1.48-.66-1.48-1.48,0-.72,.53-1.32,1.21-1.44,.09-.02,.18-.03,.27-.03,.61,0,1.13,.37,1.35,.9,.08,.17,.12,.37,.12,.57Z" style="fill:#fff;"/><path d="M21.03,11.13c0,1.68-1.38,3.05-3.06,3.05H6.03c-.08,0-.16,0-.24-.02-1.57-.11-2.82-1.43-2.82-3.03,0-1.2,.71-2.3,1.81-2.79l.66-.3,.18-.69c.59-2.27,2.64-3.85,4.98-3.85s4.26,1.46,4.94,3.63l.41,1.32,1.35-.3c.24-.06,.45-.08,.67-.08,1.68,0,3.06,1.37,3.06,3.06Z" style="fill:#fff;"/></g><path d="M18.59,17.15c-.09,.02-.18,.03-.27,.03h-.35c.21,0,.42-.01,.62-.03Z" style="fill:gray;"/></svg>