<?xml version="1.0" encoding="UTF-8"?><svg id="Layer_1" xmlns="http://www.w3.org/2000/svg" viewBox="0 0 24 24"><path d="M19.2,11.19c1.24,0,2.04,1.76,2.04,1.77,.27,.65,.94,1.01,1.61,.86,.66-.14,1.14-.75,1.14-1.46v-2.67c0-.83-.64-1.5-1.44-1.5-.48,0-.9,.25-1.17,.62-.62-.37-1.35-.62-2.19-.62-2.25,0-3.78,1.08-4.44,3.05-.08,.1-.15,.21-.21,.33,0,.02-.81,1.62-2.17,1.62-.48,0-.68-.07-.71-.07h0c-.14-.26-.14-1.28-.14-2.1v-1.83h2.4c.8,0,1.44-.67,1.44-1.5s-.64-1.5-1.44-1.5h-2.4V3.69c0-.83-.64-1.5-1.44-1.5s-1.44,.67-1.44,1.5v2.5h-1.44c-.8,0-1.44,.67-1.44,1.5s.64,1.5,1.44,1.5h1.44v2.07c-.76-1.3-1.94-2.07-3.36-2.07-2.44,0-5.28,1.57-5.28,6,0,2.41,1.4,6,5.28,6,2.5,0,3.81-1.46,3.96-1.63,.52-.61,.46-1.52-.11-2.08-.57-.55-1.48-.52-2.03,.06-.02,.03-.62,.65-1.82,.65s-1.82-.74-2.12-1.5h5c.8,0,1.43-.66,1.44-1.49,.55,.61,1.42,.99,2.78,.99,.84,0,1.58-.23,2.23-.59,.54,2.31,2.14,3.59,4.59,3.59,2.81,0,4.28-1.66,4.44-1.84,.52-.62,.45-1.54-.12-2.09-.58-.55-1.49-.5-2.03,.09-.03,.03-.79,.84-2.29,.84-1.01,0-1.92-.19-1.92-2.5s.91-2.5,1.92-2.5ZM3.08,13.69c.33-1.01,1.06-1.5,2.2-1.5,.59,0,1.02,.64,1.25,1.5H3.08Z" style="fill:#000000;"/></svg>