<?xml version="1.0" encoding="UTF-8"?><svg id="Layer_1" xmlns="http://www.w3.org/2000/svg" viewBox="0 0 24 24"><path d="M8.99,20.23l-3.06,3.08c-.24,.25-.54,.39-.85,.43-.38,.05-.77-.04-1.1-.28-.6-.43-.78-1.24-.44-1.91l1.98-3.79c.34,.37,.73,.72,1.14,1.05,.14,.11,.27,.21,.42,.31,.18,.13,.36,.24,.54,.36,.44,.28,.91,.53,1.38,.73Z" style="fill:#7f7f7f;"/><path d="M19.84,1.38c-2.45-1.75-5.49-1.68-6.81,.15-.8,1.12-.77,2.64-.07,4.06l-1.56,1.32c-2.33-.42-4.66,.23-6.29,1.74-1.37,1.29-2.05,3.04-1.82,4.69h0s.02,.12,.02,.12c0,.07,.03,.17,.06,.28,.29,1.38,1,2.79,2.15,4.02,.34,.37,.73,.72,1.14,1.05,.14,.11,.27,.21,.42,.31,.18,.13,.36,.24,.54,.36,.44,.28,.91,.53,1.38,.73,3.1,1.34,6.38,.89,7.95-1.3,.09-.13,.18-.27,.26-.4,1.39-2.23,1.37-4.98,.18-7.3l.8-1.97c1.53,.19,2.94-.28,3.73-1.38,1.32-1.83,.39-4.73-2.06-6.49ZM11.24,13.39c.8,.61,1.87,.92,2.57,1.07-.41,.32-1.92,1.39-4.2,1.72-1.71,.24-2.31-.05-3.25-.77-1.14-.88-1.21-2.32-1.21-2.35-.19-1.36,.24-2.23,1.39-3.31,.89-.83,1.76-1.18,3-1.36l.22,.47c.12,.14,.28,.54,.62,.44,.09-.03,.18-.05,.25-.11l1.21-.96h0s.17-.15,.17-.15l1.58-1.35c.11,.15,.25,.32,.43,.52,.23,.29,.36,.39,.56,.58l-3.71,5.25,.38,.29Z" style="fill:#000000;"/><path d="M11.24,13.39c.8,.61,1.87,.92,2.57,1.07-.41,.32-1.92,1.39-4.2,1.72-1.71,.24-2.31-.05-3.25-.77-1.14-.88-1.21-2.32-1.21-2.35-.19-1.36,.24-2.23,1.39-3.31,.89-.83,1.76-1.18,3-1.36l.22,.47c.12,.14,.28,.54,.62,.44,.09-.03,.18-.05,.25-.11l1.21-.96h0s.17-.15,.17-.15l1.58-1.35c.11,.15,.25,.32,.43,.52,.23,.29,.36,.39,.56,.58l-3.71,5.25,.38,.29Z" style="fill:#ffffff;"/><line x1="3.29" y1="13.35" x2="3.25" y2="13.37" style="fill:#000000;"/></svg>