<?xml version="1.0" encoding="UTF-8"?><svg id="Layer_1" xmlns="http://www.w3.org/2000/svg" viewBox="0 0 24 24"><path d="M9.74,7.18c-.13,.53-.67,.86-1.21,.73-.54-.14-.86-.68-.73-1.21,.18-.72-.09-1.23-.21-1.27-.09,0-.42,.24-.58,.82l-.74,2.97h1.26c.55,0,1,.45,1,1s-.45,1-1,1h-1.76l-.97,3.9-.1,.4h-.02c-.28,.75-.76,1.36-1.37,1.69-.33,.19-.69,.28-1.04,.28-.21,0-.42-.03-.62-.1-1.27-.41-1.94-2.02-1.53-3.65,.13-.54,.67-.87,1.21-.73,.54,.14,.86,.68,.73,1.21-.18,.72,.09,1.23,.21,1.27,.09-.01,.42-.24,.58-.81l.86-3.46h-1.24c-.55,0-1-.44-1-1s.45-1,1-1h1.74l.85-3.42h0s.1-.4,.1-.4h.02c.28-.75,.76-1.36,1.37-1.69,.53-.29,1.12-.36,1.66-.18,1.27,.41,1.94,2.02,1.53,3.65Z" style="fill:#000000;"/><path d="M10.71,15.73c.31,.46,.2,1.08-.25,1.4-.18,.12-.38,.18-.57,.18-.32,0-.63-.15-.82-.43-2.13-3.04-.89-5.9,.06-6.99,.37-.41,1-.46,1.41-.09,.42,.36,.46,.99,.1,1.4-.17,.21-1.64,2.09,.07,4.53Z" style="fill:#000000;"/><path d="M20.05,16.76c-.41,.44-.95,.67-1.5,.67-.08,0-.15,0-.22-.01-.55-.06-1.04-.36-1.39-.82h-.01s-1.12-1.89-1.12-1.89l-2.56,2.45c-.19,.18-.44,.28-.69,.28s-.53-.11-.72-.31c-.38-.4-.37-1.04,.03-1.42l2.89-2.77-1.14-1.93c-.03-.05-.05-.07-.06-.07-.26,.29-.31,.8-.15,1.08,.28,.48,.13,1.09-.35,1.37-.48,.28-1.09,.12-1.37-.35-.63-1.07-.46-2.54,.39-3.43,.48-.49,1.1-.72,1.73-.66,.54,.07,1.03,.36,1.38,.82h.02s.14,.23,.14,.23l.9,1.52,2.39-2.29c.4-.38,1.04-.37,1.42,.03,.38,.4,.37,1.03-.03,1.41l-2.74,2.62,1.22,2.06c.03,.06,.06,.08,.07,.09,.26-.3,.31-.8,.15-1.09-.28-.47-.13-1.08,.35-1.37,.47-.28,1.09-.12,1.37,.36,.63,1.06,.46,2.54-.4,3.42Z" style="fill:#000000;"/><path d="M22.83,17.06c-.2,.28-.51,.43-.82,.43-.2,0-.4-.06-.58-.18-.45-.32-.56-.94-.24-1.39,1.71-2.45,.23-4.33,.06-4.54-.36-.42-.31-1.05,.11-1.4,.41-.36,1.04-.32,1.4,.09,.95,1.09,2.19,3.95,.07,6.99Z" style="fill:#000000;"/></svg>