<?xml version="1.0" encoding="UTF-8"?><svg id="Layer_1" xmlns="http://www.w3.org/2000/svg" viewBox="0 0 24 24"><path d="M21,12.5v3c0,.61-.37,1.17-.94,1.39l-7.53,3c-.18,.07-.37,.11-.56,.11-.17,0-.34-.03-.5-.09l-8.47-3c-.6-.21-1-.77-1-1.41v-3c0-.49,.24-.94,.63-1.22,.4-.29,.91-.36,1.37-.19l7.94,2.81,7-2.79c.47-.19,.99-.13,1.4,.15,.41,.28,.66,.74,.66,1.24Z" style="fill:#000000;"/><g><polygon points="15.45 7.5 11.94 8.9 7.99 7.5 11.94 6.1 15.45 7.5" style="fill:#fff;"/><path d="M20.06,6.11l-7.53-3c-.34-.14-.72-.15-1.06-.02L3,6.09c-.6,.21-1,.77-1,1.41s.4,1.2,1,1.41l8.47,3c.16,.06,.33,.09,.5,.09,.19,0,.38-.04,.56-.11l7.53-3c.57-.22,.94-.78,.94-1.39s-.37-1.17-.94-1.39Zm-12.07,1.39l3.95-1.4,3.51,1.4-3.51,1.4-3.95-1.4Z" style="fill:#000000;"/></g></svg>