<?xml version="1.0" encoding="UTF-8"?><svg id="Layer_1" xmlns="http://www.w3.org/2000/svg" viewBox="0 0 24 24"><path d="M19.57,13.82c.35-.33,.75-.5,1.22-.5s.86,.17,1.19,.5l1.33,1.3c.33,.35,.5,.76,.5,1.21,0,.46-.17,.86-.5,1.21-.34,.33-.74,.5-1.2,.5s-.86-.17-1.2-.5l-1.33-1.33c-.33-.34-.5-.74-.5-1.21s.16-.86,.49-1.19Zm1.11-11.46c.33,.33,.5,.73,.5,1.19s-.17,.87-.5,1.21l-1.33,1.33c-.32,.33-.72,.5-1.18,.5s-.87-.16-1.22-.49c-.33-.35-.5-.75-.5-1.22s.17-.86,.5-1.19l1.33-1.33c.34-.35,.74-.53,1.2-.53s.86,.17,1.2,.52Zm-17.36,0c.33-.35,.73-.53,1.19-.53s.87,.18,1.21,.53l1.33,1.3c.33,.35,.5,.76,.5,1.21,0,.46-.16,.86-.49,1.21-.35,.33-.75,.5-1.22,.5s-.86-.17-1.19-.5l-1.33-1.33c-.33-.34-.5-.74-.5-1.21s.16-.86,.49-1.19Zm1.13,11.44c.33,.33,.5,.73,.5,1.19s-.17,.87-.5,1.21l-1.33,1.33c-.34,.33-.74,.5-1.2,.5-.46,0-.86-.16-1.2-.49-.33-.35-.5-.75-.5-1.22s.17-.86,.5-1.19l1.33-1.33c.34-.33,.73-.5,1.19-.5s.86,.16,1.21,.49Zm5.83,1.21l1.73-1.08,1.75,1.08-.48-1.98,1.6-1.38-2.07-.2-.8-1.87-.8,1.9-2.05,.18,1.6,1.38-.48,1.98Zm1.73,2.9l-3.4,2.1c-.33,.2-.67,.28-1.01,.25-.34-.03-.63-.14-.89-.33-.27-.2-.47-.46-.59-.77s-.15-.65-.06-1.01l.93-3.9-3.08-2.7c-.28-.23-.47-.52-.55-.85s-.08-.65,.03-.95c.1-.3,.28-.56,.54-.79s.58-.35,.96-.36l4-.36,1.55-3.72c.15-.37,.37-.63,.65-.8s.59-.25,.93-.25,.64,.08,.93,.25c.28,.17,.5,.43,.65,.8l1.55,3.72,4.03,.36c.38,.02,.7,.14,.95,.36s.43,.49,.53,.79,.11,.62,.04,.95-.25,.62-.54,.85l-3.08,2.7,.93,3.93c.08,.37,.06,.7-.07,1.01-.13,.31-.32,.56-.58,.77-.25,.18-.55,.29-.89,.32s-.68-.05-1.01-.25l-3.43-2.13Z" style="fill:#000000;"/></svg>