<?xml version="1.0" encoding="UTF-8"?><svg id="Layer_1" xmlns="http://www.w3.org/2000/svg" viewBox="0 0 24 24"><path d="M10,16c-.34,0-.67-.17-.86-.49-.28-.47-.13-1.09,.34-1.37l3.57-2.14-3.57-2.14c-.47-.28-.63-.9-.34-1.37,.28-.47,.9-.63,1.37-.34l5,3c.3,.18,.49,.51,.49,.86s-.18,.68-.49,.86l-5,3c-.16,.1-.34,.14-.51,.14Z" style="fill:#000000;"/><path d="M12,20c-10.22,0-11-.19-11-8S1.78,4,12,4s11,.19,11,8-.78,8-11,8Zm0-14c-4.48,0-7.18,0-8.18,.69-.79,.55-.82,2.03-.82,5.31s.03,4.75,.82,5.31c.99,.69,3.7,.69,8.18,.69s7.18,0,8.18-.69c.79-.55,.82-2.03,.82-5.31s-.03-4.75-.82-5.31c-.99-.69-3.7-.69-8.18-.69Z" style="fill:#000000;"/></svg>